solid OpenSCAD_Model
  facet normal -0.982045 0.187321 -0.0223387
    outer loop
      vertex -3.67082 0.463733 0
      vertex -3.74523 0.473132 3.35
      vertex -3.58376 0.920152 0
    endloop
  endfacet
  facet normal 0.368035 -0.929544 -0.0223385
    outer loop
      vertex 1.60732 -3.41572 3.35
      vertex 1.14336 -3.51891 0
      vertex 1.57538 -3.34786 0
    endloop
  endfacet
  facet normal 0.997777 0.0627813 -0.0223383
    outer loop
      vertex 3.775 0 3.35
      vertex 3.7 0 0
      vertex 3.74523 0.473132 3.35
    endloop
  endfacet
  facet normal 0.997777 0.0627843 -0.0223387
    outer loop
      vertex 3.7 0 0
      vertex 3.67082 0.463733 0
      vertex 3.74523 0.473132 3.35
    endloop
  endfacet
  facet normal -0.950822 -0.30893 -0.0223373
    outer loop
      vertex -3.50991 -1.38967 3.35
      vertex -3.6564 -0.938804 3.35
      vertex -3.58376 -0.920152 0
    endloop
  endfacet
  facet normal 0.481635 0.876087 -0.0223402
    outer loop
      vertex 1.98256 3.12401 0
      vertex 1.57538 3.34786 0
      vertex 2.02275 3.18734 3.35
    endloop
  endfacet
  facet normal -0.950822 0.30893 -0.0223373
    outer loop
      vertex -3.58376 0.920152 0
      vertex -3.6564 0.938804 3.35
      vertex -3.50991 1.38967 3.35
    endloop
  endfacet
  facet normal -0.248622 0.968343 -0.0223388
    outer loop
      vertex -1.14336 3.51891 0
      vertex -1.16654 3.59024 3.35
      vertex -0.693311 3.63446 0
    endloop
  endfacet
  facet normal 0.684388 -0.728776 -0.0223396
    outer loop
      vertex 2.75186 -2.58416 3.35
      vertex 2.35847 -2.8509 0
      vertex 2.69718 -2.53282 0
    endloop
  endfacet
  facet normal -0.982043 -0.187331 -0.0223372
    outer loop
      vertex -3.6564 -0.938804 3.35
      vertex -3.74523 -0.473132 3.35
      vertex -3.58376 -0.920152 0
    endloop
  endfacet
  facet normal -0.368038 -0.929542 -0.0223389
    outer loop
      vertex -1.16654 -3.59024 3.35
      vertex -1.60732 -3.41572 3.35
      vertex -1.14336 -3.51891 0
    endloop
  endfacet
  facet normal 0.12531 -0.991866 -0.0223377
    outer loop
      vertex 0.237034 -3.76755 3.35
      vertex 0.232325 -3.6927 0
      vertex 0.693311 -3.63446 0
    endloop
  endfacet
  facet normal -0.950816 -0.30895 -0.0223403
    outer loop
      vertex -3.50991 -1.38967 3.35
      vertex -3.58376 -0.920152 0
      vertex -3.44017 -1.36206 0
    endloop
  endfacet
  facet normal 0.844116 0.535694 -0.0223398
    outer loop
      vertex 3.24233 1.78249 0
      vertex 3.05404 2.21889 3.35
      vertex 3.30806 1.81862 3.35
    endloop
  endfacet
  facet normal -0.844116 -0.535694 -0.0223398
    outer loop
      vertex -3.05404 -2.21889 3.35
      vertex -3.30806 -1.81862 3.35
      vertex -3.24233 -1.78249 0
    endloop
  endfacet
  facet normal 0.587647 -0.808809 -0.0223375
    outer loop
      vertex 2.40627 -2.90869 3.35
      vertex 2.02275 -3.18734 3.35
      vertex 2.35847 -2.8509 0
    endloop
  endfacet
  facet normal -0.770321 -0.637265 -0.0223403
    outer loop
      vertex -2.69718 -2.53282 0
      vertex -3.05404 -2.21889 3.35
      vertex -2.99336 -2.1748 0
    endloop
  endfacet
  facet normal -0.844115 0.535697 -0.0223402
    outer loop
      vertex -2.99336 2.1748 0
      vertex -3.24233 1.78249 0
      vertex -3.05404 2.21889 3.35
    endloop
  endfacet
  facet normal 0.125309 -0.991866 -0.0223378
    outer loop
      vertex 0.707364 -3.70813 3.35
      vertex 0.237034 -3.76755 3.35
      vertex 0.693311 -3.63446 0
    endloop
  endfacet
  facet normal 0.997777 -0.0627813 -0.0223383
    outer loop
      vertex 3.74523 -0.473132 3.35
      vertex 3.7 0 0
      vertex 3.775 0 3.35
    endloop
  endfacet
  facet normal -0.997777 0.0627843 -0.0223387
    outer loop
      vertex -3.7 0 0
      vertex -3.74523 0.473132 3.35
      vertex -3.67082 0.463733 0
    endloop
  endfacet
  facet normal -0.587647 -0.808809 -0.0223375
    outer loop
      vertex -2.02275 -3.18734 3.35
      vertex -2.40627 -2.90869 3.35
      vertex -2.35847 -2.8509 0
    endloop
  endfacet
  facet normal -0.125309 0.991866 -0.0223378
    outer loop
      vertex -0.693311 3.63446 0
      vertex -0.707364 3.70813 3.35
      vertex -0.237034 3.76755 3.35
    endloop
  endfacet
  facet normal 0 -0.99975 -0.0223377
    outer loop
      vertex -0.232325 -3.6927 0
      vertex 0.237034 -3.76755 3.35
      vertex -0.237034 -3.76755 3.35
    endloop
  endfacet
  facet normal 0 -0.99975 -0.0223377
    outer loop
      vertex 0.237034 -3.76755 3.35
      vertex -0.232325 -3.6927 0
      vertex 0.232325 -3.6927 0
    endloop
  endfacet
  facet normal 0.770318 0.637268 -0.0223398
    outer loop
      vertex 3.05404 2.21889 3.35
      vertex 2.69718 2.53282 0
      vertex 2.75186 2.58416 3.35
    endloop
  endfacet
  facet normal -0.904601 0.425674 -0.0223402
    outer loop
      vertex -3.44017 1.36206 0
      vertex -3.50991 1.38967 3.35
      vertex -3.24233 1.78249 0
    endloop
  endfacet
  facet normal -0.368035 0.929544 -0.0223385
    outer loop
      vertex -1.57538 3.34786 0
      vertex -1.60732 3.41572 3.35
      vertex -1.14336 3.51891 0
    endloop
  endfacet
  facet normal 0.950822 -0.30893 -0.0223373
    outer loop
      vertex 3.6564 -0.938804 3.35
      vertex 3.50991 -1.38967 3.35
      vertex 3.58376 -0.920152 0
    endloop
  endfacet
  facet normal 0.982043 -0.187331 -0.0223372
    outer loop
      vertex 3.6564 -0.938804 3.35
      vertex 3.58376 -0.920152 0
      vertex 3.74523 -0.473132 3.35
    endloop
  endfacet
  facet normal 0.844115 0.535697 -0.0223402
    outer loop
      vertex 3.24233 1.78249 0
      vertex 2.99336 2.1748 0
      vertex 3.05404 2.21889 3.35
    endloop
  endfacet
  facet normal -0.368038 0.929542 -0.0223389
    outer loop
      vertex -1.14336 3.51891 0
      vertex -1.60732 3.41572 3.35
      vertex -1.16654 3.59024 3.35
    endloop
  endfacet
  facet normal -0.770321 0.637265 -0.0223403
    outer loop
      vertex -2.99336 2.1748 0
      vertex -3.05404 2.21889 3.35
      vertex -2.69718 2.53282 0
    endloop
  endfacet
  facet normal 0.950816 -0.30895 -0.0223403
    outer loop
      vertex 3.50991 -1.38967 3.35
      vertex 3.44017 -1.36206 0
      vertex 3.58376 -0.920152 0
    endloop
  endfacet
  facet normal -0.770318 0.637268 -0.0223398
    outer loop
      vertex -2.69718 2.53282 0
      vertex -3.05404 2.21889 3.35
      vertex -2.75186 2.58416 3.35
    endloop
  endfacet
  facet normal 0.844116 -0.535694 -0.0223398
    outer loop
      vertex 3.30806 -1.81862 3.35
      vertex 3.05404 -2.21889 3.35
      vertex 3.24233 -1.78249 0
    endloop
  endfacet
  facet normal -0.9046 0.425676 -0.02234
    outer loop
      vertex -3.24233 1.78249 0
      vertex -3.50991 1.38967 3.35
      vertex -3.30806 1.81862 3.35
    endloop
  endfacet
  facet normal 0.481626 -0.876092 -0.0223387
    outer loop
      vertex 1.60732 -3.41572 3.35
      vertex 1.57538 -3.34786 0
      vertex 2.02275 -3.18734 3.35
    endloop
  endfacet
  facet normal 0.368038 0.929542 -0.0223389
    outer loop
      vertex 1.60732 3.41572 3.35
      vertex 1.14336 3.51891 0
      vertex 1.16654 3.59024 3.35
    endloop
  endfacet
  facet normal -0.481635 -0.876087 -0.0223402
    outer loop
      vertex -1.57538 -3.34786 0
      vertex -2.02275 -3.18734 3.35
      vertex -1.98256 -3.12401 0
    endloop
  endfacet
  facet normal 0.904601 -0.425674 -0.0223402
    outer loop
      vertex 3.50991 -1.38967 3.35
      vertex 3.24233 -1.78249 0
      vertex 3.44017 -1.36206 0
    endloop
  endfacet
  facet normal 0.684376 -0.728787 -0.0223372
    outer loop
      vertex 2.40627 -2.90869 3.35
      vertex 2.35847 -2.8509 0
      vertex 2.75186 -2.58416 3.35
    endloop
  endfacet
  facet normal 0.770318 -0.637268 -0.0223398
    outer loop
      vertex 2.75186 -2.58416 3.35
      vertex 2.69718 -2.53282 0
      vertex 3.05404 -2.21889 3.35
    endloop
  endfacet
  facet normal -0.684388 0.728776 -0.0223396
    outer loop
      vertex -2.69718 2.53282 0
      vertex -2.75186 2.58416 3.35
      vertex -2.35847 2.8509 0
    endloop
  endfacet
  facet normal 0.9046 0.425676 -0.02234
    outer loop
      vertex 3.50991 1.38967 3.35
      vertex 3.24233 1.78249 0
      vertex 3.30806 1.81862 3.35
    endloop
  endfacet
  facet normal 0.9046 -0.425676 -0.02234
    outer loop
      vertex 3.30806 -1.81862 3.35
      vertex 3.24233 -1.78249 0
      vertex 3.50991 -1.38967 3.35
    endloop
  endfacet
  facet normal -0.587647 0.808809 -0.0223375
    outer loop
      vertex -2.35847 2.8509 0
      vertex -2.40627 2.90869 3.35
      vertex -2.02275 3.18734 3.35
    endloop
  endfacet
  facet normal 0 0 -1
    outer loop
      vertex 3.30806 -1.81862 3.35
      vertex 7.5 0 3.35
      vertex 3.75 -6.49519 3.35
    endloop
  endfacet
  facet normal -0 0 -1
    outer loop
      vertex 7.5 0 3.35
      vertex 3.74523 -0.473132 3.35
      vertex 3.775 0 3.35
    endloop
  endfacet
  facet normal 0 0 -1
    outer loop
      vertex 7.5 0 3.35
      vertex 3.6564 -0.938804 3.35
      vertex 3.74523 -0.473132 3.35
    endloop
  endfacet
  facet normal 0 0 -1
    outer loop
      vertex 7.5 0 3.35
      vertex 3.50991 -1.38967 3.35
      vertex 3.6564 -0.938804 3.35
    endloop
  endfacet
  facet normal 0 0 -1
    outer loop
      vertex 7.5 0 3.35
      vertex 3.30806 -1.81862 3.35
      vertex 3.50991 -1.38967 3.35
    endloop
  endfacet
  facet normal 0 0 -1
    outer loop
      vertex 3.75 -6.49519 3.35
      vertex 3.05404 -2.21889 3.35
      vertex 3.30806 -1.81862 3.35
    endloop
  endfacet
  facet normal 0 0 -1
    outer loop
      vertex 3.75 -6.49519 3.35
      vertex 2.75186 -2.58416 3.35
      vertex 3.05404 -2.21889 3.35
    endloop
  endfacet
  facet normal 0 0 -1
    outer loop
      vertex 3.75 -6.49519 3.35
      vertex 2.40627 -2.90869 3.35
      vertex 2.75186 -2.58416 3.35
    endloop
  endfacet
  facet normal 0 0 -1
    outer loop
      vertex 3.75 -6.49519 3.35
      vertex 2.02275 -3.18734 3.35
      vertex 2.40627 -2.90869 3.35
    endloop
  endfacet
  facet normal 0 0 -1
    outer loop
      vertex 3.75 -6.49519 3.35
      vertex 1.60732 -3.41572 3.35
      vertex 2.02275 -3.18734 3.35
    endloop
  endfacet
  facet normal 0 0 -1
    outer loop
      vertex 3.75 -6.49519 3.35
      vertex 1.16654 -3.59024 3.35
      vertex 1.60732 -3.41572 3.35
    endloop
  endfacet
  facet normal 0 0 -1
    outer loop
      vertex 3.75 -6.49519 3.35
      vertex 0.707364 -3.70813 3.35
      vertex 1.16654 -3.59024 3.35
    endloop
  endfacet
  facet normal 0 0 -1
    outer loop
      vertex 3.75 -6.49519 3.35
      vertex 0.237034 -3.76755 3.35
      vertex 0.707364 -3.70813 3.35
    endloop
  endfacet
  facet normal 0 0 -1
    outer loop
      vertex 3.75 -6.49519 3.35
      vertex -0.237034 -3.76755 3.35
      vertex 0.237034 -3.76755 3.35
    endloop
  endfacet
  facet normal 0 0 -1
    outer loop
      vertex -3.75 -6.49519 3.35
      vertex -0.237034 -3.76755 3.35
      vertex 3.75 -6.49519 3.35
    endloop
  endfacet
  facet normal -0 0 -1
    outer loop
      vertex -0.237034 -3.76755 3.35
      vertex -3.75 -6.49519 3.35
      vertex -0.707364 -3.70813 3.35
    endloop
  endfacet
  facet normal -0 0 -1
    outer loop
      vertex -0.707364 -3.70813 3.35
      vertex -3.75 -6.49519 3.35
      vertex -1.16654 -3.59024 3.35
    endloop
  endfacet
  facet normal -0 0 -1
    outer loop
      vertex -1.16654 -3.59024 3.35
      vertex -3.75 -6.49519 3.35
      vertex -1.60732 -3.41572 3.35
    endloop
  endfacet
  facet normal -0 0 -1
    outer loop
      vertex -1.60732 -3.41572 3.35
      vertex -3.75 -6.49519 3.35
      vertex -2.02275 -3.18734 3.35
    endloop
  endfacet
  facet normal 0 0 -1
    outer loop
      vertex -3.75 -6.49519 3.35
      vertex -2.40627 -2.90869 3.35
      vertex -2.02275 -3.18734 3.35
    endloop
  endfacet
  facet normal 0 0 -1
    outer loop
      vertex -3.75 -6.49519 3.35
      vertex -2.75186 -2.58416 3.35
      vertex -2.40627 -2.90869 3.35
    endloop
  endfacet
  facet normal 0 0 -1
    outer loop
      vertex -3.75 -6.49519 3.35
      vertex -3.05404 -2.21889 3.35
      vertex -2.75186 -2.58416 3.35
    endloop
  endfacet
  facet normal 0 0 -1
    outer loop
      vertex -3.75 -6.49519 3.35
      vertex -3.30806 -1.81862 3.35
      vertex -3.05404 -2.21889 3.35
    endloop
  endfacet
  facet normal 0 0 -1
    outer loop
      vertex -7.5 0 3.35
      vertex -3.30806 -1.81862 3.35
      vertex -3.75 -6.49519 3.35
    endloop
  endfacet
  facet normal 0 0 -1
    outer loop
      vertex -3.30806 -1.81862 3.35
      vertex -7.5 0 3.35
      vertex -3.50991 -1.38967 3.35
    endloop
  endfacet
  facet normal 0 0 -1
    outer loop
      vertex -3.50991 -1.38967 3.35
      vertex -7.5 0 3.35
      vertex -3.6564 -0.938804 3.35
    endloop
  endfacet
  facet normal 0 0 -1
    outer loop
      vertex -3.6564 -0.938804 3.35
      vertex -7.5 0 3.35
      vertex -3.74523 -0.473132 3.35
    endloop
  endfacet
  facet normal 0 0 -1
    outer loop
      vertex -3.74523 -0.473132 3.35
      vertex -7.5 0 3.35
      vertex -3.775 0 3.35
    endloop
  endfacet
  facet normal 0 0 -1
    outer loop
      vertex 3.74523 0.473132 3.35
      vertex 7.5 0 3.35
      vertex 3.775 0 3.35
    endloop
  endfacet
  facet normal 0 0 -1
    outer loop
      vertex 3.6564 0.938804 3.35
      vertex 7.5 0 3.35
      vertex 3.74523 0.473132 3.35
    endloop
  endfacet
  facet normal 0 0 -1
    outer loop
      vertex 3.50991 1.38967 3.35
      vertex 7.5 0 3.35
      vertex 3.6564 0.938804 3.35
    endloop
  endfacet
  facet normal 0 0 -1
    outer loop
      vertex 3.30806 1.81862 3.35
      vertex 7.5 0 3.35
      vertex 3.50991 1.38967 3.35
    endloop
  endfacet
  facet normal 0 0 -1
    outer loop
      vertex 7.5 0 3.35
      vertex 3.30806 1.81862 3.35
      vertex 3.75 6.49519 3.35
    endloop
  endfacet
  facet normal 0 0 -1
    outer loop
      vertex 3.05404 2.21889 3.35
      vertex 3.75 6.49519 3.35
      vertex 3.30806 1.81862 3.35
    endloop
  endfacet
  facet normal 0 0 -1
    outer loop
      vertex 2.75186 2.58416 3.35
      vertex 3.75 6.49519 3.35
      vertex 3.05404 2.21889 3.35
    endloop
  endfacet
  facet normal 0 0 -1
    outer loop
      vertex 2.40627 2.90869 3.35
      vertex 3.75 6.49519 3.35
      vertex 2.75186 2.58416 3.35
    endloop
  endfacet
  facet normal 0 0 -1
    outer loop
      vertex 2.02275 3.18734 3.35
      vertex 3.75 6.49519 3.35
      vertex 2.40627 2.90869 3.35
    endloop
  endfacet
  facet normal 0 0 -1
    outer loop
      vertex 1.60732 3.41572 3.35
      vertex 3.75 6.49519 3.35
      vertex 2.02275 3.18734 3.35
    endloop
  endfacet
  facet normal 0 0 -1
    outer loop
      vertex 1.16654 3.59024 3.35
      vertex 3.75 6.49519 3.35
      vertex 1.60732 3.41572 3.35
    endloop
  endfacet
  facet normal 0 0 -1
    outer loop
      vertex 0.707364 3.70813 3.35
      vertex 3.75 6.49519 3.35
      vertex 1.16654 3.59024 3.35
    endloop
  endfacet
  facet normal 0 0 -1
    outer loop
      vertex 0.237034 3.76755 3.35
      vertex 3.75 6.49519 3.35
      vertex 0.707364 3.70813 3.35
    endloop
  endfacet
  facet normal 0 0 -1
    outer loop
      vertex -0.237034 3.76755 3.35
      vertex 3.75 6.49519 3.35
      vertex 0.237034 3.76755 3.35
    endloop
  endfacet
  facet normal 0 0 -1
    outer loop
      vertex -3.75 6.49519 3.35
      vertex -0.237034 3.76755 3.35
      vertex -0.707364 3.70813 3.35
    endloop
  endfacet
  facet normal 0 0 -1
    outer loop
      vertex -3.75 6.49519 3.35
      vertex -0.707364 3.70813 3.35
      vertex -1.16654 3.59024 3.35
    endloop
  endfacet
  facet normal 0 0 -1
    outer loop
      vertex -3.75 6.49519 3.35
      vertex -1.16654 3.59024 3.35
      vertex -1.60732 3.41572 3.35
    endloop
  endfacet
  facet normal 0 0 -1
    outer loop
      vertex -3.75 6.49519 3.35
      vertex -1.60732 3.41572 3.35
      vertex -2.02275 3.18734 3.35
    endloop
  endfacet
  facet normal 0 0 -1
    outer loop
      vertex -0.237034 3.76755 3.35
      vertex -3.75 6.49519 3.35
      vertex 3.75 6.49519 3.35
    endloop
  endfacet
  facet normal 0 0 -1
    outer loop
      vertex -2.40627 2.90869 3.35
      vertex -3.75 6.49519 3.35
      vertex -2.02275 3.18734 3.35
    endloop
  endfacet
  facet normal 0 0 -1
    outer loop
      vertex -2.75186 2.58416 3.35
      vertex -3.75 6.49519 3.35
      vertex -2.40627 2.90869 3.35
    endloop
  endfacet
  facet normal 0 0 -1
    outer loop
      vertex -3.05404 2.21889 3.35
      vertex -3.75 6.49519 3.35
      vertex -2.75186 2.58416 3.35
    endloop
  endfacet
  facet normal 0 0 -1
    outer loop
      vertex -3.30806 1.81862 3.35
      vertex -3.75 6.49519 3.35
      vertex -3.05404 2.21889 3.35
    endloop
  endfacet
  facet normal 0 0 -1
    outer loop
      vertex -7.5 0 3.35
      vertex -3.30806 1.81862 3.35
      vertex -3.50991 1.38967 3.35
    endloop
  endfacet
  facet normal 0 0 -1
    outer loop
      vertex -7.5 0 3.35
      vertex -3.50991 1.38967 3.35
      vertex -3.6564 0.938804 3.35
    endloop
  endfacet
  facet normal 0 0 -1
    outer loop
      vertex -7.5 0 3.35
      vertex -3.6564 0.938804 3.35
      vertex -3.74523 0.473132 3.35
    endloop
  endfacet
  facet normal 0 0 -1
    outer loop
      vertex -7.5 0 3.35
      vertex -3.74523 0.473132 3.35
      vertex -3.775 0 3.35
    endloop
  endfacet
  facet normal -0 0 -1
    outer loop
      vertex -3.30806 1.81862 3.35
      vertex -7.5 0 3.35
      vertex -3.75 6.49519 3.35
    endloop
  endfacet
  facet normal -0.684376 0.728787 -0.0223372
    outer loop
      vertex -2.35847 2.8509 0
      vertex -2.75186 2.58416 3.35
      vertex -2.40627 2.90869 3.35
    endloop
  endfacet
  facet normal -0.844115 -0.535697 -0.0223402
    outer loop
      vertex -3.05404 -2.21889 3.35
      vertex -3.24233 -1.78249 0
      vertex -2.99336 -2.1748 0
    endloop
  endfacet
  facet normal -0.982043 0.187331 -0.0223372
    outer loop
      vertex -3.58376 0.920152 0
      vertex -3.74523 0.473132 3.35
      vertex -3.6564 0.938804 3.35
    endloop
  endfacet
  facet normal -0.9046 -0.425676 -0.02234
    outer loop
      vertex -3.30806 -1.81862 3.35
      vertex -3.50991 -1.38967 3.35
      vertex -3.24233 -1.78249 0
    endloop
  endfacet
  facet normal 0.770321 0.637265 -0.0223403
    outer loop
      vertex 2.99336 2.1748 0
      vertex 2.69718 2.53282 0
      vertex 3.05404 2.21889 3.35
    endloop
  endfacet
  facet normal 0.982045 0.187321 -0.0223387
    outer loop
      vertex 3.67082 0.463733 0
      vertex 3.58376 0.920152 0
      vertex 3.74523 0.473132 3.35
    endloop
  endfacet
  facet normal 0.982045 -0.187321 -0.0223387
    outer loop
      vertex 3.74523 -0.473132 3.35
      vertex 3.58376 -0.920152 0
      vertex 3.67082 -0.463733 0
    endloop
  endfacet
  facet normal 0.997777 -0.0627843 -0.0223387
    outer loop
      vertex 3.74523 -0.473132 3.35
      vertex 3.67082 -0.463733 0
      vertex 3.7 0 0
    endloop
  endfacet
  facet normal -0.997777 -0.0627813 -0.0223383
    outer loop
      vertex -3.74523 -0.473132 3.35
      vertex -3.775 0 3.35
      vertex -3.7 0 0
    endloop
  endfacet
  facet normal -0.982045 -0.187321 -0.0223387
    outer loop
      vertex -3.58376 -0.920152 0
      vertex -3.74523 -0.473132 3.35
      vertex -3.67082 -0.463733 0
    endloop
  endfacet
  facet normal -0.997777 -0.0627843 -0.0223387
    outer loop
      vertex -3.67082 -0.463733 0
      vertex -3.74523 -0.473132 3.35
      vertex -3.7 0 0
    endloop
  endfacet
  facet normal -0.997777 0.0627813 -0.0223383
    outer loop
      vertex -3.7 0 0
      vertex -3.775 0 3.35
      vertex -3.74523 0.473132 3.35
    endloop
  endfacet
  facet normal 0.248622 0.968343 -0.0223388
    outer loop
      vertex 1.14336 3.51891 0
      vertex 0.693311 3.63446 0
      vertex 1.16654 3.59024 3.35
    endloop
  endfacet
  facet normal 0.12531 0.991866 -0.0223377
    outer loop
      vertex 0.693311 3.63446 0
      vertex 0.232325 3.6927 0
      vertex 0.237034 3.76755 3.35
    endloop
  endfacet
  facet normal 0.982043 0.187331 -0.0223372
    outer loop
      vertex 3.74523 0.473132 3.35
      vertex 3.58376 0.920152 0
      vertex 3.6564 0.938804 3.35
    endloop
  endfacet
  facet normal 0.587647 0.808809 -0.0223375
    outer loop
      vertex 2.35847 2.8509 0
      vertex 2.02275 3.18734 3.35
      vertex 2.40627 2.90869 3.35
    endloop
  endfacet
  facet normal 0.684376 0.728787 -0.0223372
    outer loop
      vertex 2.75186 2.58416 3.35
      vertex 2.35847 2.8509 0
      vertex 2.40627 2.90869 3.35
    endloop
  endfacet
  facet normal -0.587632 0.80882 -0.0223401
    outer loop
      vertex -1.98256 3.12401 0
      vertex -2.35847 2.8509 0
      vertex -2.02275 3.18734 3.35
    endloop
  endfacet
  facet normal 0.248615 0.968345 -0.0223378
    outer loop
      vertex 1.16654 3.59024 3.35
      vertex 0.693311 3.63446 0
      vertex 0.707364 3.70813 3.35
    endloop
  endfacet
  facet normal 0.125309 0.991866 -0.0223378
    outer loop
      vertex 0.693311 3.63446 0
      vertex 0.237034 3.76755 3.35
      vertex 0.707364 3.70813 3.35
    endloop
  endfacet
  facet normal 0.684388 0.728776 -0.0223396
    outer loop
      vertex 2.69718 2.53282 0
      vertex 2.35847 2.8509 0
      vertex 2.75186 2.58416 3.35
    endloop
  endfacet
  facet normal -0.684376 -0.728787 -0.0223372
    outer loop
      vertex -2.40627 -2.90869 3.35
      vertex -2.75186 -2.58416 3.35
      vertex -2.35847 -2.8509 0
    endloop
  endfacet
  facet normal -0.248615 -0.968345 -0.0223378
    outer loop
      vertex -0.707364 -3.70813 3.35
      vertex -1.16654 -3.59024 3.35
      vertex -0.693311 -3.63446 0
    endloop
  endfacet
  facet normal -0.904601 -0.425674 -0.0223402
    outer loop
      vertex -3.24233 -1.78249 0
      vertex -3.50991 -1.38967 3.35
      vertex -3.44017 -1.36206 0
    endloop
  endfacet
  facet normal 0.844115 -0.535697 -0.0223402
    outer loop
      vertex 3.05404 -2.21889 3.35
      vertex 2.99336 -2.1748 0
      vertex 3.24233 -1.78249 0
    endloop
  endfacet
  facet normal 0.770321 -0.637265 -0.0223403
    outer loop
      vertex 3.05404 -2.21889 3.35
      vertex 2.69718 -2.53282 0
      vertex 2.99336 -2.1748 0
    endloop
  endfacet
  facet normal 0 0.99975 -0.0223377
    outer loop
      vertex 0.232325 3.6927 0
      vertex -0.237034 3.76755 3.35
      vertex 0.237034 3.76755 3.35
    endloop
  endfacet
  facet normal 0 0.99975 -0.0223377
    outer loop
      vertex -0.237034 3.76755 3.35
      vertex 0.232325 3.6927 0
      vertex -0.232325 3.6927 0
    endloop
  endfacet
  facet normal 0.587632 0.80882 -0.0223401
    outer loop
      vertex 2.35847 2.8509 0
      vertex 1.98256 3.12401 0
      vertex 2.02275 3.18734 3.35
    endloop
  endfacet
  facet normal -0.12531 -0.991866 -0.0223377
    outer loop
      vertex -0.237034 -3.76755 3.35
      vertex -0.693311 -3.63446 0
      vertex -0.232325 -3.6927 0
    endloop
  endfacet
  facet normal -0.368035 -0.929544 -0.0223385
    outer loop
      vertex -1.14336 -3.51891 0
      vertex -1.60732 -3.41572 3.35
      vertex -1.57538 -3.34786 0
    endloop
  endfacet
  facet normal -0.248615 0.968345 -0.0223378
    outer loop
      vertex -0.693311 3.63446 0
      vertex -1.16654 3.59024 3.35
      vertex -0.707364 3.70813 3.35
    endloop
  endfacet
  facet normal -0.12531 0.991866 -0.0223377
    outer loop
      vertex -0.232325 3.6927 0
      vertex -0.693311 3.63446 0
      vertex -0.237034 3.76755 3.35
    endloop
  endfacet
  facet normal -0.587632 -0.80882 -0.0223401
    outer loop
      vertex -2.02275 -3.18734 3.35
      vertex -2.35847 -2.8509 0
      vertex -1.98256 -3.12401 0
    endloop
  endfacet
  facet normal -0.125309 -0.991866 -0.0223378
    outer loop
      vertex -0.237034 -3.76755 3.35
      vertex -0.707364 -3.70813 3.35
      vertex -0.693311 -3.63446 0
    endloop
  endfacet
  facet normal 0.587632 -0.80882 -0.0223401
    outer loop
      vertex 2.02275 -3.18734 3.35
      vertex 1.98256 -3.12401 0
      vertex 2.35847 -2.8509 0
    endloop
  endfacet
  facet normal 0.481635 -0.876087 -0.0223402
    outer loop
      vertex 2.02275 -3.18734 3.35
      vertex 1.57538 -3.34786 0
      vertex 1.98256 -3.12401 0
    endloop
  endfacet
  facet normal -0.950816 0.30895 -0.0223403
    outer loop
      vertex -3.44017 1.36206 0
      vertex -3.58376 0.920152 0
      vertex -3.50991 1.38967 3.35
    endloop
  endfacet
  facet normal 0.248615 -0.968345 -0.0223378
    outer loop
      vertex 0.707364 -3.70813 3.35
      vertex 0.693311 -3.63446 0
      vertex 1.16654 -3.59024 3.35
    endloop
  endfacet
  facet normal -0.844116 0.535694 -0.0223398
    outer loop
      vertex -3.24233 1.78249 0
      vertex -3.30806 1.81862 3.35
      vertex -3.05404 2.21889 3.35
    endloop
  endfacet
  facet normal 0.481626 0.876092 -0.0223387
    outer loop
      vertex 2.02275 3.18734 3.35
      vertex 1.57538 3.34786 0
      vertex 1.60732 3.41572 3.35
    endloop
  endfacet
  facet normal 0.248622 -0.968343 -0.0223388
    outer loop
      vertex 1.16654 -3.59024 3.35
      vertex 0.693311 -3.63446 0
      vertex 1.14336 -3.51891 0
    endloop
  endfacet
  facet normal 0.368038 -0.929542 -0.0223389
    outer loop
      vertex 1.16654 -3.59024 3.35
      vertex 1.14336 -3.51891 0
      vertex 1.60732 -3.41572 3.35
    endloop
  endfacet
  facet normal -0.248622 -0.968343 -0.0223388
    outer loop
      vertex -0.693311 -3.63446 0
      vertex -1.16654 -3.59024 3.35
      vertex -1.14336 -3.51891 0
    endloop
  endfacet
  facet normal 0.904601 0.425674 -0.0223402
    outer loop
      vertex 3.44017 1.36206 0
      vertex 3.24233 1.78249 0
      vertex 3.50991 1.38967 3.35
    endloop
  endfacet
  facet normal -0.481635 0.876087 -0.0223402
    outer loop
      vertex -1.98256 3.12401 0
      vertex -2.02275 3.18734 3.35
      vertex -1.57538 3.34786 0
    endloop
  endfacet
  facet normal 0.368035 0.929544 -0.0223385
    outer loop
      vertex 1.57538 3.34786 0
      vertex 1.14336 3.51891 0
      vertex 1.60732 3.41572 3.35
    endloop
  endfacet
  facet normal -0.684388 -0.728776 -0.0223396
    outer loop
      vertex -2.35847 -2.8509 0
      vertex -2.75186 -2.58416 3.35
      vertex -2.69718 -2.53282 0
    endloop
  endfacet
  facet normal -0.770318 -0.637268 -0.0223398
    outer loop
      vertex -2.75186 -2.58416 3.35
      vertex -3.05404 -2.21889 3.35
      vertex -2.69718 -2.53282 0
    endloop
  endfacet
  facet normal -0.481626 -0.876092 -0.0223387
    outer loop
      vertex -1.60732 -3.41572 3.35
      vertex -2.02275 -3.18734 3.35
      vertex -1.57538 -3.34786 0
    endloop
  endfacet
  facet normal -0.481626 0.876092 -0.0223387
    outer loop
      vertex -1.57538 3.34786 0
      vertex -2.02275 3.18734 3.35
      vertex -1.60732 3.41572 3.35
    endloop
  endfacet
  facet normal 0 0 -1
    outer loop
      vertex 2.2 0 0
      vertex 3.7 0 0
      vertex 3.67082 -0.463733 0
    endloop
  endfacet
  facet normal 0 0 -1
    outer loop
      vertex 2.2 0 0
      vertex 3.67082 -0.463733 0
      vertex 3.58376 -0.920152 0
    endloop
  endfacet
  facet normal 0 0 -1
    outer loop
      vertex 3.7 0 0
      vertex 2.2 0 0
      vertex 3.67082 0.463733 0
    endloop
  endfacet
  facet normal 0 0 -1
    outer loop
      vertex 2.2 0 0
      vertex 3.58376 -0.920152 0
      vertex 3.44017 -1.36206 0
    endloop
  endfacet
  facet normal 0 0 -1
    outer loop
      vertex 2.2 0.809999 0
      vertex 3.67082 0.463733 0
      vertex 2.2 0 0
    endloop
  endfacet
  facet normal 0 0 -1
    outer loop
      vertex 1.40998 -0.78999 0
      vertex 3.44017 -1.36206 0
      vertex 3.24233 -1.78249 0
    endloop
  endfacet
  facet normal 0 0 -1
    outer loop
      vertex 3.67082 0.463733 0
      vertex 2.2 0.809999 0
      vertex 3.58376 0.920152 0
    endloop
  endfacet
  facet normal 0 0 -1
    outer loop
      vertex 1.40998 -0.78999 0
      vertex 3.24233 -1.78249 0
      vertex 2.99336 -2.1748 0
    endloop
  endfacet
  facet normal -0 0 -1
    outer loop
      vertex 3.58376 0.920152 0
      vertex 2.2 0.809999 0
      vertex 3.44017 1.36206 0
    endloop
  endfacet
  facet normal 0 0 -1
    outer loop
      vertex 1.40998 -0.78999 0
      vertex 2.99336 -2.1748 0
      vertex 2.69718 -2.53282 0
    endloop
  endfacet
  facet normal -0 0 -1
    outer loop
      vertex 3.44017 1.36206 0
      vertex 2.2 0.809999 0
      vertex 3.24233 1.78249 0
    endloop
  endfacet
  facet normal 0 0 -1
    outer loop
      vertex 1.40998 -0.78999 0
      vertex 2.69718 -2.53282 0
      vertex 2.35847 -2.8509 0
    endloop
  endfacet
  facet normal -0 0 -1
    outer loop
      vertex 3.24233 1.78249 0
      vertex 2.2 0.809999 0
      vertex 2.99336 2.1748 0
    endloop
  endfacet
  facet normal -0 0 -1
    outer loop
      vertex 2.99336 2.1748 0
      vertex 2.2 0.809999 0
      vertex 2.69718 2.53282 0
    endloop
  endfacet
  facet normal 0 0 -1
    outer loop
      vertex 3.44017 -1.36206 0
      vertex 1.40998 -0.78999 0
      vertex 2.2 0 0
    endloop
  endfacet
  facet normal 0 0 -1
    outer loop
      vertex 1.40998 -0.78999 0
      vertex 2.35847 -2.8509 0
      vertex 1.98256 -3.12401 0
    endloop
  endfacet
  facet normal 0 0 -1
    outer loop
      vertex 1.40998 -0.78999 0
      vertex 1.98256 -3.12401 0
      vertex 1.57538 -3.34786 0
    endloop
  endfacet
  facet normal -0 0 -1
    outer loop
      vertex 2.2 0 0
      vertex 1.40998 -0.78999 0
      vertex 2.19999 0 0
    endloop
  endfacet
  facet normal 0 0 -1
    outer loop
      vertex 1.14336 -3.51891 0
      vertex 1.40998 -0.78999 0
      vertex 1.57538 -3.34786 0
    endloop
  endfacet
  facet normal 0 0 -1
    outer loop
      vertex 0.693311 -3.63446 0
      vertex 1.40998 -0.78999 0
      vertex 1.14336 -3.51891 0
    endloop
  endfacet
  facet normal 0 0 -1
    outer loop
      vertex 0.232325 -3.6927 0
      vertex 1.40998 -0.78999 0
      vertex 0.693311 -3.63446 0
    endloop
  endfacet
  facet normal 0 0 -1
    outer loop
      vertex -0.232325 -3.6927 0
      vertex 1.40998 -0.78999 0
      vertex 0.232325 -3.6927 0
    endloop
  endfacet
  facet normal 0 0 -1
    outer loop
      vertex -1.41001 -0.78999 0
      vertex -0.232325 -3.6927 0
      vertex -0.693311 -3.63446 0
    endloop
  endfacet
  facet normal 0 0 -1
    outer loop
      vertex -1.41001 -0.78999 0
      vertex -0.693311 -3.63446 0
      vertex -1.14336 -3.51891 0
    endloop
  endfacet
  facet normal 0 0 -1
    outer loop
      vertex -0.232325 -3.6927 0
      vertex -1.41001 -0.78999 0
      vertex 1.40998 -0.78999 0
    endloop
  endfacet
  facet normal 0 0 -1
    outer loop
      vertex -1.57538 -3.34786 0
      vertex -1.41001 -0.78999 0
      vertex -1.14336 -3.51891 0
    endloop
  endfacet
  facet normal 0 0 -1
    outer loop
      vertex -1.98256 -3.12401 0
      vertex -1.41001 -0.78999 0
      vertex -1.57538 -3.34786 0
    endloop
  endfacet
  facet normal 0 0 -1
    outer loop
      vertex -2.35847 -2.8509 0
      vertex -1.41001 -0.78999 0
      vertex -1.98256 -3.12401 0
    endloop
  endfacet
  facet normal 0 0 -1
    outer loop
      vertex -2.69718 -2.53282 0
      vertex -1.41001 -0.78999 0
      vertex -2.35847 -2.8509 0
    endloop
  endfacet
  facet normal 0 0 -1
    outer loop
      vertex -3.24233 -1.78249 0
      vertex -1.41001 -0.78999 0
      vertex -2.99336 -2.1748 0
    endloop
  endfacet
  facet normal 0 0 -1
    outer loop
      vertex -2.99336 -2.1748 0
      vertex -1.41001 -0.78999 0
      vertex -2.69718 -2.53282 0
    endloop
  endfacet
  facet normal -0 0 -1
    outer loop
      vertex 2.69718 2.53282 0
      vertex 2.2 0.809999 0
      vertex 2.35847 2.8509 0
    endloop
  endfacet
  facet normal 0 0 -1
    outer loop
      vertex 2.2 0.809999 0
      vertex 1.98256 3.12401 0
      vertex 2.35847 2.8509 0
    endloop
  endfacet
  facet normal 0 0 -1
    outer loop
      vertex 2.2 0.809999 0
      vertex 1.57538 3.34786 0
      vertex 1.98256 3.12401 0
    endloop
  endfacet
  facet normal 0 0 -1
    outer loop
      vertex 2.2 0.809999 0
      vertex 1.14336 3.51891 0
      vertex 1.57538 3.34786 0
    endloop
  endfacet
  facet normal 0 0 -1
    outer loop
      vertex 2.2 0.809999 0
      vertex 0.693311 3.63446 0
      vertex 1.14336 3.51891 0
    endloop
  endfacet
  facet normal 0 0 -1
    outer loop
      vertex 2.2 0.809999 0
      vertex 0.232325 3.6927 0
      vertex 0.693311 3.63446 0
    endloop
  endfacet
  facet normal 0 0 -1
    outer loop
      vertex 2.2 0.809999 0
      vertex -0.232325 3.6927 0
      vertex 0.232325 3.6927 0
    endloop
  endfacet
  facet normal 0 0 -1
    outer loop
      vertex -2.2 0.809999 0
      vertex -0.232325 3.6927 0
      vertex 2.2 0.809999 0
    endloop
  endfacet
  facet normal 0 0 -1
    outer loop
      vertex -0.232325 3.6927 0
      vertex -2.2 0.809999 0
      vertex -0.693311 3.63446 0
    endloop
  endfacet
  facet normal 0 0 -1
    outer loop
      vertex -0.693311 3.63446 0
      vertex -2.2 0.809999 0
      vertex -1.14336 3.51891 0
    endloop
  endfacet
  facet normal 0 0 -1
    outer loop
      vertex -1.14336 3.51891 0
      vertex -2.2 0.809999 0
      vertex -1.57538 3.34786 0
    endloop
  endfacet
  facet normal 0 0 -1
    outer loop
      vertex -1.57538 3.34786 0
      vertex -2.2 0.809999 0
      vertex -1.98256 3.12401 0
    endloop
  endfacet
  facet normal 0 0 -1
    outer loop
      vertex -2.2 0.809999 0
      vertex -2.35847 2.8509 0
      vertex -1.98256 3.12401 0
    endloop
  endfacet
  facet normal 0 0 -1
    outer loop
      vertex -3.44017 -1.36206 0
      vertex -1.41001 -0.78999 0
      vertex -3.24233 -1.78249 0
    endloop
  endfacet
  facet normal 0 0 -1
    outer loop
      vertex -2.2 0.809999 0
      vertex -2.69718 2.53282 0
      vertex -2.35847 2.8509 0
    endloop
  endfacet
  facet normal -0 0 -1
    outer loop
      vertex -1.41001 -0.78999 0
      vertex -3.44017 -1.36206 0
      vertex -2.2 0 0
    endloop
  endfacet
  facet normal 0 0 -1
    outer loop
      vertex -2.2 0.809999 0
      vertex -2.99336 2.1748 0
      vertex -2.69718 2.53282 0
    endloop
  endfacet
  facet normal 0 0 -1
    outer loop
      vertex -3.58376 -0.920152 0
      vertex -2.2 0 0
      vertex -3.44017 -1.36206 0
    endloop
  endfacet
  facet normal 0 0 -1
    outer loop
      vertex -2.2 0.809999 0
      vertex -3.24233 1.78249 0
      vertex -2.99336 2.1748 0
    endloop
  endfacet
  facet normal 0 0 -1
    outer loop
      vertex -3.67082 -0.463733 0
      vertex -2.2 0 0
      vertex -3.58376 -0.920152 0
    endloop
  endfacet
  facet normal 0 0 -1
    outer loop
      vertex -2.2 0.809999 0
      vertex -3.44017 1.36206 0
      vertex -3.24233 1.78249 0
    endloop
  endfacet
  facet normal 0 0 -1
    outer loop
      vertex -3.7 0 0
      vertex -2.2 0 0
      vertex -3.67082 -0.463733 0
    endloop
  endfacet
  facet normal 0 0 -1
    outer loop
      vertex -2.2 0.809999 0
      vertex -3.58376 0.920152 0
      vertex -3.44017 1.36206 0
    endloop
  endfacet
  facet normal 0 -0 -1
    outer loop
      vertex -3.67082 0.463733 0
      vertex -2.2 0 0
      vertex -3.7 0 0
    endloop
  endfacet
  facet normal -0 0 -1
    outer loop
      vertex -2.2 0.809999 0
      vertex -3.67082 0.463733 0
      vertex -3.58376 0.920152 0
    endloop
  endfacet
  facet normal 0 0 -1
    outer loop
      vertex -2.2 0 0
      vertex -3.67082 0.463733 0
      vertex -2.2 0.809999 0
    endloop
  endfacet
  facet normal 0.950816 0.30895 -0.0223403
    outer loop
      vertex 3.58376 0.920152 0
      vertex 3.44017 1.36206 0
      vertex 3.50991 1.38967 3.35
    endloop
  endfacet
  facet normal 0.950822 0.30893 -0.0223373
    outer loop
      vertex 3.58376 0.920152 0
      vertex 3.50991 1.38967 3.35
      vertex 3.6564 0.938804 3.35
    endloop
  endfacet
  facet normal 1 -0 0
    outer loop
      vertex -2.2 0 4.5
      vertex -2.2 0.809999 0
      vertex -2.2 0.809999 4.5
    endloop
  endfacet
  facet normal 1 0 0
    outer loop
      vertex -2.2 0.809999 0
      vertex -2.2 0 4.5
      vertex -2.2 0 0
    endloop
  endfacet
  facet normal 0 0 -1
    outer loop
      vertex -1.41001 -0.78999 3
      vertex 2.19999 0 3
      vertex 1.40998 -0.78999 3
    endloop
  endfacet
  facet normal -0 0 -1
    outer loop
      vertex 2.19999 0 3
      vertex -1.41001 -0.78999 3
      vertex -2.2 0 3
    endloop
  endfacet
  facet normal -0.707098 0.707116 0
    outer loop
      vertex 2.19999 0 0
      vertex 1.40998 -0.78999 3
      vertex 2.19999 0 3
    endloop
  endfacet
  facet normal -0.707098 0.707116 0
    outer loop
      vertex 1.40998 -0.78999 3
      vertex 2.19999 0 0
      vertex 1.40998 -0.78999 0
    endloop
  endfacet
  facet normal 0 1 -0
    outer loop
      vertex 1.40998 -0.78999 0
      vertex -1.41001 -0.78999 3
      vertex 1.40998 -0.78999 3
    endloop
  endfacet
  facet normal 0 1 0
    outer loop
      vertex -1.41001 -0.78999 3
      vertex 1.40998 -0.78999 0
      vertex -1.41001 -0.78999 0
    endloop
  endfacet
  facet normal 0 -1 0
    outer loop
      vertex -2.2 0.809999 0
      vertex 2.2 0.809999 4.5
      vertex -2.2 0.809999 4.5
    endloop
  endfacet
  facet normal 0 -1 -0
    outer loop
      vertex 2.2 0.809999 4.5
      vertex -2.2 0.809999 0
      vertex 2.2 0.809999 0
    endloop
  endfacet
  facet normal 0.707107 0.707107 -0
    outer loop
      vertex -1.41001 -0.78999 0
      vertex -2.2 0 3
      vertex -1.41001 -0.78999 3
    endloop
  endfacet
  facet normal 0.707107 0.707107 0
    outer loop
      vertex -2.2 0 3
      vertex -1.41001 -0.78999 0
      vertex -2.2 0 0
    endloop
  endfacet
  facet normal 0 -1 0
    outer loop
      vertex -3.75 -6.49519 3.35
      vertex 3.75 -6.49519 7.85
      vertex -3.75 -6.49519 7.85
    endloop
  endfacet
  facet normal 0 -1 -0
    outer loop
      vertex 3.75 -6.49519 7.85
      vertex -3.75 -6.49519 3.35
      vertex 3.75 -6.49519 3.35
    endloop
  endfacet
  facet normal 0.866025 -0.5 0
    outer loop
      vertex 3.75 -6.49519 7.85
      vertex 7.5 0 3.35
      vertex 7.5 0 7.85
    endloop
  endfacet
  facet normal 0.866025 -0.5 0
    outer loop
      vertex 7.5 0 3.35
      vertex 3.75 -6.49519 7.85
      vertex 3.75 -6.49519 3.35
    endloop
  endfacet
  facet normal 0 1 -0
    outer loop
      vertex 3.75 6.49519 3.35
      vertex -3.75 6.49519 7.85
      vertex 3.75 6.49519 7.85
    endloop
  endfacet
  facet normal 0 1 0
    outer loop
      vertex -3.75 6.49519 7.85
      vertex 3.75 6.49519 3.35
      vertex -3.75 6.49519 3.35
    endloop
  endfacet
  facet normal 0.866025 0.5 0
    outer loop
      vertex 7.5 0 7.85
      vertex 3.75 6.49519 3.35
      vertex 3.75 6.49519 7.85
    endloop
  endfacet
  facet normal 0.866025 0.5 0
    outer loop
      vertex 3.75 6.49519 3.35
      vertex 7.5 0 7.85
      vertex 7.5 0 3.35
    endloop
  endfacet
  facet normal -0.866025 0.5 0
    outer loop
      vertex -7.5 0 3.35
      vertex -3.75 6.49519 7.85
      vertex -3.75 6.49519 3.35
    endloop
  endfacet
  facet normal -0.866025 0.5 0
    outer loop
      vertex -3.75 6.49519 7.85
      vertex -7.5 0 3.35
      vertex -7.5 0 7.85
    endloop
  endfacet
  facet normal -0.866025 -0.5 0
    outer loop
      vertex -3.75 -6.49519 3.35
      vertex -7.5 0 7.85
      vertex -7.5 0 3.35
    endloop
  endfacet
  facet normal -0.866025 -0.5 0
    outer loop
      vertex -7.5 0 7.85
      vertex -3.75 -6.49519 3.35
      vertex -3.75 -6.49519 7.85
    endloop
  endfacet
  facet normal 0 0 -1
    outer loop
      vertex 7.5 0 7.85
      vertex 8 0 7.85
      vertex 7.93692 -1.00267 7.85
    endloop
  endfacet
  facet normal 0 0 -1
    outer loop
      vertex 7.5 0 7.85
      vertex 7.93692 -1.00267 7.85
      vertex 7.74866 -1.98952 7.85
    endloop
  endfacet
  facet normal 0 0 -1
    outer loop
      vertex 8 0 7.85
      vertex 7.5 0 7.85
      vertex 7.93692 1.00267 7.85
    endloop
  endfacet
  facet normal -0 0 -1
    outer loop
      vertex 7.93692 1.00267 7.85
      vertex 7.5 0 7.85
      vertex 7.74866 1.98952 7.85
    endloop
  endfacet
  facet normal 0 0 -1
    outer loop
      vertex 7.43821 -2.945 7.85
      vertex 7.5 0 7.85
      vertex 7.74866 -1.98952 7.85
    endloop
  endfacet
  facet normal 0 0 -1
    outer loop
      vertex 7.01045 -3.85403 7.85
      vertex 7.5 0 7.85
      vertex 7.43821 -2.945 7.85
    endloop
  endfacet
  facet normal 0 0 -1
    outer loop
      vertex 3.75 -6.49519 7.85
      vertex 7.01045 -3.85403 7.85
      vertex 6.47214 -4.70228 7.85
    endloop
  endfacet
  facet normal 0 0 -1
    outer loop
      vertex 3.75 -6.49519 7.85
      vertex 6.47214 -4.70228 7.85
      vertex 5.83175 -5.47638 7.85
    endloop
  endfacet
  facet normal 0 0 -1
    outer loop
      vertex 3.75 -6.49519 7.85
      vertex 5.83175 -5.47638 7.85
      vertex 5.09939 -6.16411 7.85
    endloop
  endfacet
  facet normal 0 0 -1
    outer loop
      vertex 3.75 -6.49519 7.85
      vertex 5.09939 -6.16411 7.85
      vertex 4.28661 -6.75462 7.85
    endloop
  endfacet
  facet normal -0 0 -1
    outer loop
      vertex 7.01045 -3.85403 7.85
      vertex 3.75 -6.49519 7.85
      vertex 7.5 0 7.85
    endloop
  endfacet
  facet normal 0 0 -1
    outer loop
      vertex 3.40623 -7.23862 7.85
      vertex 3.75 -6.49519 7.85
      vertex 4.28661 -6.75462 7.85
    endloop
  endfacet
  facet normal 0 0 -1
    outer loop
      vertex 2.47214 -7.60845 7.85
      vertex 3.75 -6.49519 7.85
      vertex 3.40623 -7.23862 7.85
    endloop
  endfacet
  facet normal 0 0 -1
    outer loop
      vertex 1.49905 -7.8583 7.85
      vertex 3.75 -6.49519 7.85
      vertex 2.47214 -7.60845 7.85
    endloop
  endfacet
  facet normal 0 0 -1
    outer loop
      vertex 0.502324 -7.98421 7.85
      vertex 3.75 -6.49519 7.85
      vertex 1.49905 -7.8583 7.85
    endloop
  endfacet
  facet normal 0 0 -1
    outer loop
      vertex -0.502324 -7.98421 7.85
      vertex 3.75 -6.49519 7.85
      vertex 0.502324 -7.98421 7.85
    endloop
  endfacet
  facet normal 0 0 -1
    outer loop
      vertex -3.75 -6.49519 7.85
      vertex -0.502324 -7.98421 7.85
      vertex -1.49905 -7.8583 7.85
    endloop
  endfacet
  facet normal 0 0 -1
    outer loop
      vertex -3.75 -6.49519 7.85
      vertex -1.49905 -7.8583 7.85
      vertex -2.47214 -7.60845 7.85
    endloop
  endfacet
  facet normal 0 0 -1
    outer loop
      vertex -3.75 -6.49519 7.85
      vertex -2.47214 -7.60845 7.85
      vertex -3.40623 -7.23862 7.85
    endloop
  endfacet
  facet normal 0 0 -1
    outer loop
      vertex -0.502324 -7.98421 7.85
      vertex -3.75 -6.49519 7.85
      vertex 3.75 -6.49519 7.85
    endloop
  endfacet
  facet normal 0 0 -1
    outer loop
      vertex -4.28661 -6.75462 7.85
      vertex -3.75 -6.49519 7.85
      vertex -3.40623 -7.23862 7.85
    endloop
  endfacet
  facet normal 0 0 -1
    outer loop
      vertex -5.09939 -6.16411 7.85
      vertex -3.75 -6.49519 7.85
      vertex -4.28661 -6.75462 7.85
    endloop
  endfacet
  facet normal 0 0 -1
    outer loop
      vertex -5.83175 -5.47638 7.85
      vertex -3.75 -6.49519 7.85
      vertex -5.09939 -6.16411 7.85
    endloop
  endfacet
  facet normal 0 0 -1
    outer loop
      vertex -6.47214 -4.70228 7.85
      vertex -3.75 -6.49519 7.85
      vertex -5.83175 -5.47638 7.85
    endloop
  endfacet
  facet normal 0 0 -1
    outer loop
      vertex -7.01045 -3.85403 7.85
      vertex -3.75 -6.49519 7.85
      vertex -6.47214 -4.70228 7.85
    endloop
  endfacet
  facet normal 0 0 -1
    outer loop
      vertex -7.5 0 7.85
      vertex -7.01045 -3.85403 7.85
      vertex -7.43821 -2.945 7.85
    endloop
  endfacet
  facet normal 0 0 -1
    outer loop
      vertex -7.01045 -3.85403 7.85
      vertex -7.5 0 7.85
      vertex -3.75 -6.49519 7.85
    endloop
  endfacet
  facet normal 0 -0 -1
    outer loop
      vertex -7.5 0 7.85
      vertex -7.43821 -2.945 7.85
      vertex -7.74866 -1.98952 7.85
    endloop
  endfacet
  facet normal 0 0 -1
    outer loop
      vertex 7.5 0 7.85
      vertex 7.43821 2.945 7.85
      vertex 7.74866 1.98952 7.85
    endloop
  endfacet
  facet normal 0 0 -1
    outer loop
      vertex 7.5 0 7.85
      vertex 7.01045 3.85403 7.85
      vertex 7.43821 2.945 7.85
    endloop
  endfacet
  facet normal 0 0 -1
    outer loop
      vertex 3.75 6.49519 7.85
      vertex 7.01045 3.85403 7.85
      vertex 7.5 0 7.85
    endloop
  endfacet
  facet normal 0 0 -1
    outer loop
      vertex 7.01045 3.85403 7.85
      vertex 3.75 6.49519 7.85
      vertex 6.47214 4.70228 7.85
    endloop
  endfacet
  facet normal 0 0 -1
    outer loop
      vertex 6.47214 4.70228 7.85
      vertex 3.75 6.49519 7.85
      vertex 5.83175 5.47638 7.85
    endloop
  endfacet
  facet normal 0 0 -1
    outer loop
      vertex 5.83175 5.47638 7.85
      vertex 3.75 6.49519 7.85
      vertex 5.09939 6.16411 7.85
    endloop
  endfacet
  facet normal 0 0 -1
    outer loop
      vertex 5.09939 6.16411 7.85
      vertex 3.75 6.49519 7.85
      vertex 4.28661 6.75462 7.85
    endloop
  endfacet
  facet normal 0 0 -1
    outer loop
      vertex 3.75 6.49519 7.85
      vertex 3.40623 7.23862 7.85
      vertex 4.28661 6.75462 7.85
    endloop
  endfacet
  facet normal 0 0 -1
    outer loop
      vertex 3.75 6.49519 7.85
      vertex 2.47214 7.60845 7.85
      vertex 3.40623 7.23862 7.85
    endloop
  endfacet
  facet normal 0 0 -1
    outer loop
      vertex 3.75 6.49519 7.85
      vertex 1.49905 7.8583 7.85
      vertex 2.47214 7.60845 7.85
    endloop
  endfacet
  facet normal 0 0 -1
    outer loop
      vertex 3.75 6.49519 7.85
      vertex 0.502324 7.98421 7.85
      vertex 1.49905 7.8583 7.85
    endloop
  endfacet
  facet normal 0 0 -1
    outer loop
      vertex 3.75 6.49519 7.85
      vertex -0.502324 7.98421 7.85
      vertex 0.502324 7.98421 7.85
    endloop
  endfacet
  facet normal 0 0 -1
    outer loop
      vertex -3.75 6.49519 7.85
      vertex -0.502324 7.98421 7.85
      vertex 3.75 6.49519 7.85
    endloop
  endfacet
  facet normal 0 0 -1
    outer loop
      vertex -0.502324 7.98421 7.85
      vertex -3.75 6.49519 7.85
      vertex -1.49905 7.8583 7.85
    endloop
  endfacet
  facet normal 0 0 -1
    outer loop
      vertex -1.49905 7.8583 7.85
      vertex -3.75 6.49519 7.85
      vertex -2.47214 7.60845 7.85
    endloop
  endfacet
  facet normal 0 0 -1
    outer loop
      vertex -2.47214 7.60845 7.85
      vertex -3.75 6.49519 7.85
      vertex -3.40623 7.23862 7.85
    endloop
  endfacet
  facet normal 0 0 -1
    outer loop
      vertex -3.75 6.49519 7.85
      vertex -4.28661 6.75462 7.85
      vertex -3.40623 7.23862 7.85
    endloop
  endfacet
  facet normal -0 0 -1
    outer loop
      vertex -3.75 6.49519 7.85
      vertex -5.09939 6.16411 7.85
      vertex -4.28661 6.75462 7.85
    endloop
  endfacet
  facet normal 0 0 -1
    outer loop
      vertex -3.75 6.49519 7.85
      vertex -5.83175 5.47638 7.85
      vertex -5.09939 6.16411 7.85
    endloop
  endfacet
  facet normal 0 0 -1
    outer loop
      vertex -3.75 6.49519 7.85
      vertex -6.47214 4.70228 7.85
      vertex -5.83175 5.47638 7.85
    endloop
  endfacet
  facet normal 0 0 -1
    outer loop
      vertex -3.75 6.49519 7.85
      vertex -7.01045 3.85403 7.85
      vertex -6.47214 4.70228 7.85
    endloop
  endfacet
  facet normal 0 0 -1
    outer loop
      vertex -7.5 0 7.85
      vertex -7.01045 3.85403 7.85
      vertex -3.75 6.49519 7.85
    endloop
  endfacet
  facet normal 0 0 -1
    outer loop
      vertex -7.01045 3.85403 7.85
      vertex -7.5 0 7.85
      vertex -7.43821 2.945 7.85
    endloop
  endfacet
  facet normal 0 0 -1
    outer loop
      vertex -7.93692 -1.00267 7.85
      vertex -7.5 0 7.85
      vertex -7.74866 -1.98952 7.85
    endloop
  endfacet
  facet normal 0 0 -1
    outer loop
      vertex -7.5 0 7.85
      vertex -7.74866 1.98952 7.85
      vertex -7.43821 2.945 7.85
    endloop
  endfacet
  facet normal 0 0 -1
    outer loop
      vertex -8 0 7.85
      vertex -7.5 0 7.85
      vertex -7.93692 -1.00267 7.85
    endloop
  endfacet
  facet normal 0 0 -1
    outer loop
      vertex -7.5 0 7.85
      vertex -7.93692 1.00267 7.85
      vertex -7.74866 1.98952 7.85
    endloop
  endfacet
  facet normal 0 0 -1
    outer loop
      vertex -7.5 0 7.85
      vertex -8 0 7.85
      vertex -7.93692 1.00267 7.85
    endloop
  endfacet
  facet normal 0.997799 0.0627735 -0.0213814
    outer loop
      vertex 8 0 7.85
      vertex 7.93692 1.00267 7.85
      vertex 8.075 0 11.35
    endloop
  endfacet
  facet normal 0.481645 -0.876106 -0.0213818
    outer loop
      vertex 3.43817 -7.30648 11.35
      vertex 3.40623 -7.23862 7.85
      vertex 4.3268 -6.81795 11.35
    endloop
  endfacet
  facet normal 0.587654 -0.80883 -0.0213831
    outer loop
      vertex 4.3268 -6.81795 11.35
      vertex 4.28661 -6.75462 7.85
      vertex 5.1472 -6.22189 11.35
    endloop
  endfacet
  facet normal 0.95084 0.308942 -0.0213833
    outer loop
      vertex 7.74866 1.98952 7.85
      vertex 7.43821 2.945 7.85
      vertex 7.50795 2.97261 11.35
    endloop
  endfacet
  facet normal -0.997799 -0.0627735 -0.0213814
    outer loop
      vertex -7.93692 -1.00267 7.85
      vertex -8.075 0 11.35
      vertex -8 0 7.85
    endloop
  endfacet
  facet normal -0.770338 -0.637278 -0.0213811
    outer loop
      vertex -5.83175 -5.47638 7.85
      vertex -6.53281 -4.74637 11.35
      vertex -6.47214 -4.70228 7.85
    endloop
  endfacet
  facet normal 0.684389 0.728804 -0.0213807
    outer loop
      vertex 5.83175 5.47638 7.85
      vertex 5.1472 6.22189 11.35
      vertex 5.88642 5.52772 11.35
    endloop
  endfacet
  facet normal -0.684389 0.728804 -0.0213807
    outer loop
      vertex -5.83175 5.47638 7.85
      vertex -5.88642 5.52772 11.35
      vertex -5.1472 6.22189 11.35
    endloop
  endfacet
  facet normal 0.587645 -0.808836 -0.02138
    outer loop
      vertex 5.1472 -6.22189 11.35
      vertex 4.28661 -6.75462 7.85
      vertex 5.09939 -6.16411 7.85
    endloop
  endfacet
  facet normal 0.68439 0.728803 -0.0213803
    outer loop
      vertex 5.83175 5.47638 7.85
      vertex 5.09939 6.16411 7.85
      vertex 5.1472 6.22189 11.35
    endloop
  endfacet
  facet normal 0.68439 -0.728803 -0.0213803
    outer loop
      vertex 5.1472 -6.22189 11.35
      vertex 5.09939 -6.16411 7.85
      vertex 5.83175 -5.47638 7.85
    endloop
  endfacet
  facet normal -0.844138 0.5357 -0.0213808
    outer loop
      vertex -6.47214 4.70228 7.85
      vertex -7.01045 3.85403 7.85
      vertex -6.53281 4.74637 11.35
    endloop
  endfacet
  facet normal 0.950841 -0.308941 -0.021383
    outer loop
      vertex 7.82131 -2.00817 11.35
      vertex 7.50795 -2.97261 11.35
      vertex 7.74866 -1.98952 7.85
    endloop
  endfacet
  facet normal -0.248634 0.968361 -0.0213807
    outer loop
      vertex -1.49905 7.8583 7.85
      vertex -2.49531 7.67978 11.35
      vertex -1.5131 7.93197 11.35
    endloop
  endfacet
  facet normal 0.95084 -0.308942 -0.0213833
    outer loop
      vertex 7.50795 -2.97261 11.35
      vertex 7.43821 -2.945 7.85
      vertex 7.74866 -1.98952 7.85
    endloop
  endfacet
  facet normal 0.904619 0.425685 -0.021383
    outer loop
      vertex 7.50795 2.97261 11.35
      vertex 7.01045 3.85403 7.85
      vertex 7.07618 3.89016 11.35
    endloop
  endfacet
  facet normal -0.904619 -0.425685 -0.021383
    outer loop
      vertex -7.07618 -3.89016 11.35
      vertex -7.50795 -2.97261 11.35
      vertex -7.01045 -3.85403 7.85
    endloop
  endfacet
  facet normal 0.368036 0.929566 -0.0213815
    outer loop
      vertex 3.40623 7.23862 7.85
      vertex 2.49531 7.67978 11.35
      vertex 3.43817 7.30648 11.35
    endloop
  endfacet
  facet normal 0.368038 0.929565 -0.0213809
    outer loop
      vertex 3.40623 7.23862 7.85
      vertex 2.47214 7.60845 7.85
      vertex 2.49531 7.67978 11.35
    endloop
  endfacet
  facet normal -0.770337 0.637279 -0.0213806
    outer loop
      vertex -5.83175 5.47638 7.85
      vertex -6.53281 4.74637 11.35
      vertex -5.88642 5.52772 11.35
    endloop
  endfacet
  facet normal 0.125309 0.991887 -0.0213808
    outer loop
      vertex 1.49905 7.8583 7.85
      vertex 0.507033 8.05907 11.35
      vertex 1.5131 7.93197 11.35
    endloop
  endfacet
  facet normal -0.368038 -0.929565 -0.0213809
    outer loop
      vertex -2.49531 -7.67978 11.35
      vertex -3.40623 -7.23862 7.85
      vertex -2.47214 -7.60845 7.85
    endloop
  endfacet
  facet normal -0.248636 0.968361 -0.0213812
    outer loop
      vertex -2.47214 7.60845 7.85
      vertex -2.49531 7.67978 11.35
      vertex -1.49905 7.8583 7.85
    endloop
  endfacet
  facet normal -0.587654 -0.80883 -0.0213831
    outer loop
      vertex -4.3268 -6.81795 11.35
      vertex -5.1472 -6.22189 11.35
      vertex -4.28661 -6.75462 7.85
    endloop
  endfacet
  facet normal -0.770337 -0.637279 -0.0213806
    outer loop
      vertex -5.88642 -5.52772 11.35
      vertex -6.53281 -4.74637 11.35
      vertex -5.83175 -5.47638 7.85
    endloop
  endfacet
  facet normal 0.770337 -0.637279 -0.0213806
    outer loop
      vertex 5.88642 -5.52772 11.35
      vertex 5.83175 -5.47638 7.85
      vertex 6.53281 -4.74637 11.35
    endloop
  endfacet
  facet normal -0.770338 0.637278 -0.0213811
    outer loop
      vertex -6.47214 4.70228 7.85
      vertex -6.53281 4.74637 11.35
      vertex -5.83175 5.47638 7.85
    endloop
  endfacet
  facet normal 0.248636 0.968361 -0.0213812
    outer loop
      vertex 2.47214 7.60845 7.85
      vertex 1.49905 7.8583 7.85
      vertex 2.49531 7.67978 11.35
    endloop
  endfacet
  facet normal 0.997799 0.0627728 -0.0213816
    outer loop
      vertex 8.075 0 11.35
      vertex 7.93692 1.00267 7.85
      vertex 8.01133 1.01206 11.35
    endloop
  endfacet
  facet normal 0.997799 -0.0627735 -0.0213814
    outer loop
      vertex 8.075 0 11.35
      vertex 7.93692 -1.00267 7.85
      vertex 8 0 7.85
    endloop
  endfacet
  facet normal -0.125299 -0.991889 -0.0213837
    outer loop
      vertex -0.507033 -8.05907 11.35
      vertex -1.49905 -7.8583 7.85
      vertex -0.502324 -7.98421 7.85
    endloop
  endfacet
  facet normal -0.481649 0.876103 -0.0213832
    outer loop
      vertex -4.28661 6.75462 7.85
      vertex -4.3268 6.81795 11.35
      vertex -3.40623 7.23862 7.85
    endloop
  endfacet
  facet normal -0.844138 -0.5357 -0.0213808
    outer loop
      vertex -6.53281 -4.74637 11.35
      vertex -7.01045 -3.85403 7.85
      vertex -6.47214 -4.70228 7.85
    endloop
  endfacet
  facet normal -0.68439 0.728803 -0.0213803
    outer loop
      vertex -5.09939 6.16411 7.85
      vertex -5.83175 5.47638 7.85
      vertex -5.1472 6.22189 11.35
    endloop
  endfacet
  facet normal 0 0.999771 -0.0213837
    outer loop
      vertex 0.502324 7.98421 7.85
      vertex -0.507033 8.05907 11.35
      vertex 0.507033 8.05907 11.35
    endloop
  endfacet
  facet normal 0 0.999771 -0.0213837
    outer loop
      vertex -0.507033 8.05907 11.35
      vertex 0.502324 7.98421 7.85
      vertex -0.502324 7.98421 7.85
    endloop
  endfacet
  facet normal 0.770337 0.637279 -0.0213806
    outer loop
      vertex 6.53281 4.74637 11.35
      vertex 5.83175 5.47638 7.85
      vertex 5.88642 5.52772 11.35
    endloop
  endfacet
  facet normal 0.770338 -0.637278 -0.0213811
    outer loop
      vertex 6.53281 -4.74637 11.35
      vertex 5.83175 -5.47638 7.85
      vertex 6.47214 -4.70228 7.85
    endloop
  endfacet
  facet normal 0.904619 -0.425684 -0.0213832
    outer loop
      vertex 7.50795 -2.97261 11.35
      vertex 7.01045 -3.85403 7.85
      vertex 7.43821 -2.945 7.85
    endloop
  endfacet
  facet normal 0.248634 0.968361 -0.0213807
    outer loop
      vertex 2.49531 7.67978 11.35
      vertex 1.49905 7.8583 7.85
      vertex 1.5131 7.93197 11.35
    endloop
  endfacet
  facet normal 0.368036 -0.929566 -0.0213815
    outer loop
      vertex 3.43817 -7.30648 11.35
      vertex 2.49531 -7.67978 11.35
      vertex 3.40623 -7.23862 7.85
    endloop
  endfacet
  facet normal -0.950841 0.308941 -0.021383
    outer loop
      vertex -7.74866 1.98952 7.85
      vertex -7.82131 2.00817 11.35
      vertex -7.50795 2.97261 11.35
    endloop
  endfacet
  facet normal 0.368038 -0.929565 -0.0213809
    outer loop
      vertex 2.49531 -7.67978 11.35
      vertex 2.47214 -7.60845 7.85
      vertex 3.40623 -7.23862 7.85
    endloop
  endfacet
  facet normal 0.248636 -0.968361 -0.0213812
    outer loop
      vertex 2.49531 -7.67978 11.35
      vertex 1.49905 -7.8583 7.85
      vertex 2.47214 -7.60845 7.85
    endloop
  endfacet
  facet normal 0.248634 -0.968361 -0.0213807
    outer loop
      vertex 1.5131 -7.93197 11.35
      vertex 1.49905 -7.8583 7.85
      vertex 2.49531 -7.67978 11.35
    endloop
  endfacet
  facet normal 0.982062 -0.18734 -0.0213831
    outer loop
      vertex 7.82131 -2.00817 11.35
      vertex 7.74866 -1.98952 7.85
      vertex 8.01133 -1.01206 11.35
    endloop
  endfacet
  facet normal 0.997799 -0.0627728 -0.0213816
    outer loop
      vertex 8.01133 -1.01206 11.35
      vertex 7.93692 -1.00267 7.85
      vertex 8.075 0 11.35
    endloop
  endfacet
  facet normal 0.684389 -0.728804 -0.0213807
    outer loop
      vertex 5.88642 -5.52772 11.35
      vertex 5.1472 -6.22189 11.35
      vertex 5.83175 -5.47638 7.85
    endloop
  endfacet
  facet normal -0.481645 0.876106 -0.0213818
    outer loop
      vertex -3.40623 7.23862 7.85
      vertex -4.3268 6.81795 11.35
      vertex -3.43817 7.30648 11.35
    endloop
  endfacet
  facet normal 0.844138 -0.5357 -0.0213808
    outer loop
      vertex 6.53281 -4.74637 11.35
      vertex 6.47214 -4.70228 7.85
      vertex 7.01045 -3.85403 7.85
    endloop
  endfacet
  facet normal 0.950841 0.308941 -0.021383
    outer loop
      vertex 7.74866 1.98952 7.85
      vertex 7.50795 2.97261 11.35
      vertex 7.82131 2.00817 11.35
    endloop
  endfacet
  facet normal -0.95084 0.308942 -0.0213833
    outer loop
      vertex -7.43821 2.945 7.85
      vertex -7.74866 1.98952 7.85
      vertex -7.50795 2.97261 11.35
    endloop
  endfacet
  facet normal -0.982061 0.187346 -0.0213812
    outer loop
      vertex -7.93692 1.00267 7.85
      vertex -8.01133 1.01206 11.35
      vertex -7.74866 1.98952 7.85
    endloop
  endfacet
  facet normal -0.904619 -0.425684 -0.0213832
    outer loop
      vertex -7.01045 -3.85403 7.85
      vertex -7.50795 -2.97261 11.35
      vertex -7.43821 -2.945 7.85
    endloop
  endfacet
  facet normal -0.844134 0.535706 -0.0213828
    outer loop
      vertex -7.01045 3.85403 7.85
      vertex -7.07618 3.89016 11.35
      vertex -6.53281 4.74637 11.35
    endloop
  endfacet
  facet normal -0.368036 0.929566 -0.0213815
    outer loop
      vertex -3.40623 7.23862 7.85
      vertex -3.43817 7.30648 11.35
      vertex -2.49531 7.67978 11.35
    endloop
  endfacet
  facet normal -0.997799 -0.0627728 -0.0213816
    outer loop
      vertex -8.01133 -1.01206 11.35
      vertex -8.075 0 11.35
      vertex -7.93692 -1.00267 7.85
    endloop
  endfacet
  facet normal -0.997799 0.0627728 -0.0213816
    outer loop
      vertex -7.93692 1.00267 7.85
      vertex -8.075 0 11.35
      vertex -8.01133 1.01206 11.35
    endloop
  endfacet
  facet normal -0.997799 0.0627735 -0.0213814
    outer loop
      vertex -8 0 7.85
      vertex -8.075 0 11.35
      vertex -7.93692 1.00267 7.85
    endloop
  endfacet
  facet normal -0.68439 -0.728803 -0.0213803
    outer loop
      vertex -5.1472 -6.22189 11.35
      vertex -5.83175 -5.47638 7.85
      vertex -5.09939 -6.16411 7.85
    endloop
  endfacet
  facet normal -0.587645 -0.808836 -0.02138
    outer loop
      vertex -4.28661 -6.75462 7.85
      vertex -5.1472 -6.22189 11.35
      vertex -5.09939 -6.16411 7.85
    endloop
  endfacet
  facet normal -0.950841 -0.308941 -0.021383
    outer loop
      vertex -7.50795 -2.97261 11.35
      vertex -7.82131 -2.00817 11.35
      vertex -7.74866 -1.98952 7.85
    endloop
  endfacet
  facet normal -0.982061 -0.187346 -0.0213812
    outer loop
      vertex -7.74866 -1.98952 7.85
      vertex -8.01133 -1.01206 11.35
      vertex -7.93692 -1.00267 7.85
    endloop
  endfacet
  facet normal 0.125299 -0.991889 -0.0213837
    outer loop
      vertex 0.507033 -8.05907 11.35
      vertex 0.502324 -7.98421 7.85
      vertex 1.49905 -7.8583 7.85
    endloop
  endfacet
  facet normal 0 -0.999771 -0.0213837
    outer loop
      vertex -0.502324 -7.98421 7.85
      vertex 0.507033 -8.05907 11.35
      vertex -0.507033 -8.05907 11.35
    endloop
  endfacet
  facet normal 0 -0.999771 -0.0213837
    outer loop
      vertex 0.507033 -8.05907 11.35
      vertex -0.502324 -7.98421 7.85
      vertex 0.502324 -7.98421 7.85
    endloop
  endfacet
  facet normal 0.770338 0.637278 -0.0213811
    outer loop
      vertex 6.47214 4.70228 7.85
      vertex 5.83175 5.47638 7.85
      vertex 6.53281 4.74637 11.35
    endloop
  endfacet
  facet normal 0.125299 0.991889 -0.0213837
    outer loop
      vertex 1.49905 7.8583 7.85
      vertex 0.502324 7.98421 7.85
      vertex 0.507033 8.05907 11.35
    endloop
  endfacet
  facet normal 0.481645 0.876106 -0.0213818
    outer loop
      vertex 4.3268 6.81795 11.35
      vertex 3.40623 7.23862 7.85
      vertex 3.43817 7.30648 11.35
    endloop
  endfacet
  facet normal -0.587654 0.80883 -0.0213831
    outer loop
      vertex -4.28661 6.75462 7.85
      vertex -5.1472 6.22189 11.35
      vertex -4.3268 6.81795 11.35
    endloop
  endfacet
  facet normal -0.587645 0.808836 -0.02138
    outer loop
      vertex -5.09939 6.16411 7.85
      vertex -5.1472 6.22189 11.35
      vertex -4.28661 6.75462 7.85
    endloop
  endfacet
  facet normal -0.95084 -0.308942 -0.0213833
    outer loop
      vertex -7.50795 -2.97261 11.35
      vertex -7.74866 -1.98952 7.85
      vertex -7.43821 -2.945 7.85
    endloop
  endfacet
  facet normal 0.125309 -0.991887 -0.0213808
    outer loop
      vertex 1.5131 -7.93197 11.35
      vertex 0.507033 -8.05907 11.35
      vertex 1.49905 -7.8583 7.85
    endloop
  endfacet
  facet normal 0.481649 -0.876103 -0.0213832
    outer loop
      vertex 4.3268 -6.81795 11.35
      vertex 3.40623 -7.23862 7.85
      vertex 4.28661 -6.75462 7.85
    endloop
  endfacet
  facet normal -0.368036 -0.929566 -0.0213815
    outer loop
      vertex -2.49531 -7.67978 11.35
      vertex -3.43817 -7.30648 11.35
      vertex -3.40623 -7.23862 7.85
    endloop
  endfacet
  facet normal -0.684389 -0.728804 -0.0213807
    outer loop
      vertex -5.1472 -6.22189 11.35
      vertex -5.88642 -5.52772 11.35
      vertex -5.83175 -5.47638 7.85
    endloop
  endfacet
  facet normal 0.982062 0.18734 -0.0213831
    outer loop
      vertex 8.01133 1.01206 11.35
      vertex 7.74866 1.98952 7.85
      vertex 7.82131 2.00817 11.35
    endloop
  endfacet
  facet normal 0.982061 0.187346 -0.0213812
    outer loop
      vertex 7.93692 1.00267 7.85
      vertex 7.74866 1.98952 7.85
      vertex 8.01133 1.01206 11.35
    endloop
  endfacet
  facet normal 0.982061 -0.187346 -0.0213812
    outer loop
      vertex 8.01133 -1.01206 11.35
      vertex 7.74866 -1.98952 7.85
      vertex 7.93692 -1.00267 7.85
    endloop
  endfacet
  facet normal 0.844134 0.535706 -0.0213828
    outer loop
      vertex 7.01045 3.85403 7.85
      vertex 6.53281 4.74637 11.35
      vertex 7.07618 3.89016 11.35
    endloop
  endfacet
  facet normal 0.844138 0.5357 -0.0213808
    outer loop
      vertex 7.01045 3.85403 7.85
      vertex 6.47214 4.70228 7.85
      vertex 6.53281 4.74637 11.35
    endloop
  endfacet
  facet normal -0.982062 0.18734 -0.0213831
    outer loop
      vertex -7.74866 1.98952 7.85
      vertex -8.01133 1.01206 11.35
      vertex -7.82131 2.00817 11.35
    endloop
  endfacet
  facet normal -0.125299 0.991889 -0.0213837
    outer loop
      vertex -0.502324 7.98421 7.85
      vertex -1.49905 7.8583 7.85
      vertex -0.507033 8.05907 11.35
    endloop
  endfacet
  facet normal -0.248636 -0.968361 -0.0213812
    outer loop
      vertex -1.49905 -7.8583 7.85
      vertex -2.49531 -7.67978 11.35
      vertex -2.47214 -7.60845 7.85
    endloop
  endfacet
  facet normal -0.368038 0.929565 -0.0213809
    outer loop
      vertex -2.47214 7.60845 7.85
      vertex -3.40623 7.23862 7.85
      vertex -2.49531 7.67978 11.35
    endloop
  endfacet
  facet normal -0.125309 0.991887 -0.0213808
    outer loop
      vertex -1.49905 7.8583 7.85
      vertex -1.5131 7.93197 11.35
      vertex -0.507033 8.05907 11.35
    endloop
  endfacet
  facet normal -0.125309 -0.991887 -0.0213808
    outer loop
      vertex -0.507033 -8.05907 11.35
      vertex -1.5131 -7.93197 11.35
      vertex -1.49905 -7.8583 7.85
    endloop
  endfacet
  facet normal -0 0 -1
    outer loop
      vertex 10 0 11.35
      vertex 8.01133 -1.01206 11.35
      vertex 8.075 0 11.35
    endloop
  endfacet
  facet normal 0 0 -1
    outer loop
      vertex 10 0 11.35
      vertex 7.82131 -2.00817 11.35
      vertex 8.01133 -1.01206 11.35
    endloop
  endfacet
  facet normal 0 0 -1
    outer loop
      vertex 10 0 11.35
      vertex 7.50795 -2.97261 11.35
      vertex 7.82131 -2.00817 11.35
    endloop
  endfacet
  facet normal 0 0 -1
    outer loop
      vertex 10 0 11.35
      vertex 7.07618 -3.89016 11.35
      vertex 7.50795 -2.97261 11.35
    endloop
  endfacet
  facet normal 0 0 -1
    outer loop
      vertex 5 -8.66025 11.35
      vertex 7.07618 -3.89016 11.35
      vertex 10 0 11.35
    endloop
  endfacet
  facet normal 0 0 -1
    outer loop
      vertex 7.07618 -3.89016 11.35
      vertex 5 -8.66025 11.35
      vertex 6.53281 -4.74637 11.35
    endloop
  endfacet
  facet normal 0 0 -1
    outer loop
      vertex 5 -8.66025 11.35
      vertex 5.88642 -5.52772 11.35
      vertex 6.53281 -4.74637 11.35
    endloop
  endfacet
  facet normal 0 0 -1
    outer loop
      vertex 5 -8.66025 11.35
      vertex 5.1472 -6.22189 11.35
      vertex 5.88642 -5.52772 11.35
    endloop
  endfacet
  facet normal 0 0 -1
    outer loop
      vertex 5 -8.66025 11.35
      vertex 4.3268 -6.81795 11.35
      vertex 5.1472 -6.22189 11.35
    endloop
  endfacet
  facet normal 0 0 -1
    outer loop
      vertex 5 -8.66025 11.35
      vertex 3.43817 -7.30648 11.35
      vertex 4.3268 -6.81795 11.35
    endloop
  endfacet
  facet normal 0 0 -1
    outer loop
      vertex 5 -8.66025 11.35
      vertex 2.49531 -7.67978 11.35
      vertex 3.43817 -7.30648 11.35
    endloop
  endfacet
  facet normal 0 0 -1
    outer loop
      vertex 5 -8.66025 11.35
      vertex 1.5131 -7.93197 11.35
      vertex 2.49531 -7.67978 11.35
    endloop
  endfacet
  facet normal 0 0 -1
    outer loop
      vertex 5 -8.66025 11.35
      vertex 0.507033 -8.05907 11.35
      vertex 1.5131 -7.93197 11.35
    endloop
  endfacet
  facet normal 0 0 -1
    outer loop
      vertex 5 -8.66025 11.35
      vertex -0.507033 -8.05907 11.35
      vertex 0.507033 -8.05907 11.35
    endloop
  endfacet
  facet normal 0 0 -1
    outer loop
      vertex -5 -8.66025 11.35
      vertex -0.507033 -8.05907 11.35
      vertex 5 -8.66025 11.35
    endloop
  endfacet
  facet normal 0 0 -1
    outer loop
      vertex -5 -8.66025 11.35
      vertex -1.5131 -7.93197 11.35
      vertex -0.507033 -8.05907 11.35
    endloop
  endfacet
  facet normal 0 0 -1
    outer loop
      vertex -5 -8.66025 11.35
      vertex -2.49531 -7.67978 11.35
      vertex -1.5131 -7.93197 11.35
    endloop
  endfacet
  facet normal 0 0 -1
    outer loop
      vertex -5 -8.66025 11.35
      vertex -3.43817 -7.30648 11.35
      vertex -2.49531 -7.67978 11.35
    endloop
  endfacet
  facet normal 0 0 -1
    outer loop
      vertex -5 -8.66025 11.35
      vertex -4.3268 -6.81795 11.35
      vertex -3.43817 -7.30648 11.35
    endloop
  endfacet
  facet normal 0 0 -1
    outer loop
      vertex -5 -8.66025 11.35
      vertex -5.1472 -6.22189 11.35
      vertex -4.3268 -6.81795 11.35
    endloop
  endfacet
  facet normal 0 0 -1
    outer loop
      vertex -5 -8.66025 11.35
      vertex -5.88642 -5.52772 11.35
      vertex -5.1472 -6.22189 11.35
    endloop
  endfacet
  facet normal 0 0 -1
    outer loop
      vertex -5 -8.66025 11.35
      vertex -6.53281 -4.74637 11.35
      vertex -5.88642 -5.52772 11.35
    endloop
  endfacet
  facet normal 0 0 -1
    outer loop
      vertex -5 -8.66025 11.35
      vertex -7.07618 -3.89016 11.35
      vertex -6.53281 -4.74637 11.35
    endloop
  endfacet
  facet normal 0 0 -1
    outer loop
      vertex -10 0 11.35
      vertex -7.07618 -3.89016 11.35
      vertex -5 -8.66025 11.35
    endloop
  endfacet
  facet normal 0 0 -1
    outer loop
      vertex -8.01133 -1.01206 11.35
      vertex -10 0 11.35
      vertex -8.075 0 11.35
    endloop
  endfacet
  facet normal 0 0 -1
    outer loop
      vertex -7.82131 -2.00817 11.35
      vertex -10 0 11.35
      vertex -8.01133 -1.01206 11.35
    endloop
  endfacet
  facet normal 0 0 -1
    outer loop
      vertex -7.50795 -2.97261 11.35
      vertex -10 0 11.35
      vertex -7.82131 -2.00817 11.35
    endloop
  endfacet
  facet normal 0 0 -1
    outer loop
      vertex -7.07618 -3.89016 11.35
      vertex -10 0 11.35
      vertex -7.50795 -2.97261 11.35
    endloop
  endfacet
  facet normal 0 0 -1
    outer loop
      vertex 8.01133 1.01206 11.35
      vertex 10 0 11.35
      vertex 8.075 0 11.35
    endloop
  endfacet
  facet normal 0 0 -1
    outer loop
      vertex 7.82131 2.00817 11.35
      vertex 10 0 11.35
      vertex 8.01133 1.01206 11.35
    endloop
  endfacet
  facet normal 0 0 -1
    outer loop
      vertex 7.50795 2.97261 11.35
      vertex 10 0 11.35
      vertex 7.82131 2.00817 11.35
    endloop
  endfacet
  facet normal 0 0 -1
    outer loop
      vertex 7.07618 3.89016 11.35
      vertex 10 0 11.35
      vertex 7.50795 2.97261 11.35
    endloop
  endfacet
  facet normal 0 0 -1
    outer loop
      vertex 5 8.66025 11.35
      vertex 7.07618 3.89016 11.35
      vertex 6.53281 4.74637 11.35
    endloop
  endfacet
  facet normal 0 0 -1
    outer loop
      vertex 7.07618 3.89016 11.35
      vertex 5 8.66025 11.35
      vertex 10 0 11.35
    endloop
  endfacet
  facet normal 0 0 -1
    outer loop
      vertex 5.88642 5.52772 11.35
      vertex 5 8.66025 11.35
      vertex 6.53281 4.74637 11.35
    endloop
  endfacet
  facet normal 0 0 -1
    outer loop
      vertex 5.1472 6.22189 11.35
      vertex 5 8.66025 11.35
      vertex 5.88642 5.52772 11.35
    endloop
  endfacet
  facet normal 0 0 -1
    outer loop
      vertex 4.3268 6.81795 11.35
      vertex 5 8.66025 11.35
      vertex 5.1472 6.22189 11.35
    endloop
  endfacet
  facet normal 0 0 -1
    outer loop
      vertex 3.43817 7.30648 11.35
      vertex 5 8.66025 11.35
      vertex 4.3268 6.81795 11.35
    endloop
  endfacet
  facet normal 0 0 -1
    outer loop
      vertex 2.49531 7.67978 11.35
      vertex 5 8.66025 11.35
      vertex 3.43817 7.30648 11.35
    endloop
  endfacet
  facet normal 0 0 -1
    outer loop
      vertex 1.5131 7.93197 11.35
      vertex 5 8.66025 11.35
      vertex 2.49531 7.67978 11.35
    endloop
  endfacet
  facet normal 0 0 -1
    outer loop
      vertex 0.507033 8.05907 11.35
      vertex 5 8.66025 11.35
      vertex 1.5131 7.93197 11.35
    endloop
  endfacet
  facet normal 0 0 -1
    outer loop
      vertex -0.507033 8.05907 11.35
      vertex 5 8.66025 11.35
      vertex 0.507033 8.05907 11.35
    endloop
  endfacet
  facet normal 0 0 -1
    outer loop
      vertex -0.507033 8.05907 11.35
      vertex -5 8.66025 11.35
      vertex 5 8.66025 11.35
    endloop
  endfacet
  facet normal 0 0 -1
    outer loop
      vertex -1.5131 7.93197 11.35
      vertex -5 8.66025 11.35
      vertex -0.507033 8.05907 11.35
    endloop
  endfacet
  facet normal 0 0 -1
    outer loop
      vertex -2.49531 7.67978 11.35
      vertex -5 8.66025 11.35
      vertex -1.5131 7.93197 11.35
    endloop
  endfacet
  facet normal 0 0 -1
    outer loop
      vertex -3.43817 7.30648 11.35
      vertex -5 8.66025 11.35
      vertex -2.49531 7.67978 11.35
    endloop
  endfacet
  facet normal 0 0 -1
    outer loop
      vertex -4.3268 6.81795 11.35
      vertex -5 8.66025 11.35
      vertex -3.43817 7.30648 11.35
    endloop
  endfacet
  facet normal 0 0 -1
    outer loop
      vertex -5.1472 6.22189 11.35
      vertex -5 8.66025 11.35
      vertex -4.3268 6.81795 11.35
    endloop
  endfacet
  facet normal 0 0 -1
    outer loop
      vertex -5.88642 5.52772 11.35
      vertex -5 8.66025 11.35
      vertex -5.1472 6.22189 11.35
    endloop
  endfacet
  facet normal 0 0 -1
    outer loop
      vertex -6.53281 4.74637 11.35
      vertex -5 8.66025 11.35
      vertex -5.88642 5.52772 11.35
    endloop
  endfacet
  facet normal 0 0 -1
    outer loop
      vertex -7.07618 3.89016 11.35
      vertex -5 8.66025 11.35
      vertex -6.53281 4.74637 11.35
    endloop
  endfacet
  facet normal 0 0 -1
    outer loop
      vertex -10 0 11.35
      vertex -7.07618 3.89016 11.35
      vertex -7.50795 2.97261 11.35
    endloop
  endfacet
  facet normal -0 0 -1
    outer loop
      vertex -7.07618 3.89016 11.35
      vertex -10 0 11.35
      vertex -5 8.66025 11.35
    endloop
  endfacet
  facet normal -0 0 -1
    outer loop
      vertex -7.82131 2.00817 11.35
      vertex -10 0 11.35
      vertex -7.50795 2.97261 11.35
    endloop
  endfacet
  facet normal -0 0 -1
    outer loop
      vertex -8.01133 1.01206 11.35
      vertex -10 0 11.35
      vertex -7.82131 2.00817 11.35
    endloop
  endfacet
  facet normal 0 0 -1
    outer loop
      vertex -10 0 11.35
      vertex -8.01133 1.01206 11.35
      vertex -8.075 0 11.35
    endloop
  endfacet
  facet normal 0.904619 0.425684 -0.0213832
    outer loop
      vertex 7.43821 2.945 7.85
      vertex 7.01045 3.85403 7.85
      vertex 7.50795 2.97261 11.35
    endloop
  endfacet
  facet normal 0.587654 0.80883 -0.0213831
    outer loop
      vertex 5.1472 6.22189 11.35
      vertex 4.28661 6.75462 7.85
      vertex 4.3268 6.81795 11.35
    endloop
  endfacet
  facet normal -0.982062 -0.18734 -0.0213831
    outer loop
      vertex -7.82131 -2.00817 11.35
      vertex -8.01133 -1.01206 11.35
      vertex -7.74866 -1.98952 7.85
    endloop
  endfacet
  facet normal -0.904619 0.425684 -0.0213832
    outer loop
      vertex -7.43821 2.945 7.85
      vertex -7.50795 2.97261 11.35
      vertex -7.01045 3.85403 7.85
    endloop
  endfacet
  facet normal -0.248634 -0.968361 -0.0213807
    outer loop
      vertex -1.5131 -7.93197 11.35
      vertex -2.49531 -7.67978 11.35
      vertex -1.49905 -7.8583 7.85
    endloop
  endfacet
  facet normal -0.904619 0.425685 -0.021383
    outer loop
      vertex -7.01045 3.85403 7.85
      vertex -7.50795 2.97261 11.35
      vertex -7.07618 3.89016 11.35
    endloop
  endfacet
  facet normal -0.844134 -0.535706 -0.0213828
    outer loop
      vertex -6.53281 -4.74637 11.35
      vertex -7.07618 -3.89016 11.35
      vertex -7.01045 -3.85403 7.85
    endloop
  endfacet
  facet normal 0.904619 -0.425685 -0.021383
    outer loop
      vertex 7.07618 -3.89016 11.35
      vertex 7.01045 -3.85403 7.85
      vertex 7.50795 -2.97261 11.35
    endloop
  endfacet
  facet normal 0.844134 -0.535706 -0.0213828
    outer loop
      vertex 7.07618 -3.89016 11.35
      vertex 6.53281 -4.74637 11.35
      vertex 7.01045 -3.85403 7.85
    endloop
  endfacet
  facet normal -0.481649 -0.876103 -0.0213832
    outer loop
      vertex -3.40623 -7.23862 7.85
      vertex -4.3268 -6.81795 11.35
      vertex -4.28661 -6.75462 7.85
    endloop
  endfacet
  facet normal -0.481645 -0.876106 -0.0213818
    outer loop
      vertex -3.43817 -7.30648 11.35
      vertex -4.3268 -6.81795 11.35
      vertex -3.40623 -7.23862 7.85
    endloop
  endfacet
  facet normal 0.481649 0.876103 -0.0213832
    outer loop
      vertex 4.28661 6.75462 7.85
      vertex 3.40623 7.23862 7.85
      vertex 4.3268 6.81795 11.35
    endloop
  endfacet
  facet normal 0.587645 0.808836 -0.02138
    outer loop
      vertex 5.09939 6.16411 7.85
      vertex 4.28661 6.75462 7.85
      vertex 5.1472 6.22189 11.35
    endloop
  endfacet
  facet normal 0 -1 0
    outer loop
      vertex -5 -8.66025 11.35
      vertex 5 -8.66025 15.35
      vertex -5 -8.66025 15.35
    endloop
  endfacet
  facet normal 0 -1 -0
    outer loop
      vertex 5 -8.66025 15.35
      vertex -5 -8.66025 11.35
      vertex 5 -8.66025 11.35
    endloop
  endfacet
  facet normal 0.866025 -0.5 0
    outer loop
      vertex 5 -8.66025 15.35
      vertex 10 0 11.35
      vertex 10 0 15.35
    endloop
  endfacet
  facet normal 0.866025 -0.5 0
    outer loop
      vertex 10 0 11.35
      vertex 5 -8.66025 15.35
      vertex 5 -8.66025 11.35
    endloop
  endfacet
  facet normal 0 1 -0
    outer loop
      vertex 5 8.66025 11.35
      vertex -5 8.66025 15.35
      vertex 5 8.66025 15.35
    endloop
  endfacet
  facet normal 0 1 0
    outer loop
      vertex -5 8.66025 15.35
      vertex 5 8.66025 11.35
      vertex -5 8.66025 11.35
    endloop
  endfacet
  facet normal 0.866025 0.5 0
    outer loop
      vertex 10 0 15.35
      vertex 5 8.66025 11.35
      vertex 5 8.66025 15.35
    endloop
  endfacet
  facet normal 0.866025 0.5 0
    outer loop
      vertex 5 8.66025 11.35
      vertex 10 0 15.35
      vertex 10 0 11.35
    endloop
  endfacet
  facet normal -0.866025 0.5 0
    outer loop
      vertex -10 0 11.35
      vertex -5 8.66025 15.35
      vertex -5 8.66025 11.35
    endloop
  endfacet
  facet normal -0.866025 0.5 0
    outer loop
      vertex -5 8.66025 15.35
      vertex -10 0 11.35
      vertex -10 0 15.35
    endloop
  endfacet
  facet normal -0.866025 -0.5 0
    outer loop
      vertex -5 -8.66025 11.35
      vertex -10 0 15.35
      vertex -10 0 11.35
    endloop
  endfacet
  facet normal -0.866025 -0.5 0
    outer loop
      vertex -10 0 15.35
      vertex -5 -8.66025 11.35
      vertex -5 -8.66025 15.35
    endloop
  endfacet
  facet normal -0 0 1
    outer loop
      vertex 3.8 1.3 15.35
      vertex 10 0 15.35
      vertex 5 8.66025 15.35
    endloop
  endfacet
  facet normal 0 0 1
    outer loop
      vertex 3.8 -1.3 15.35
      vertex 10 0 15.35
      vertex 3.8 1.3 15.35
    endloop
  endfacet
  facet normal 0 0 1
    outer loop
      vertex 5 8.66025 15.35
      vertex -3.8 1.3 15.35
      vertex 3.8 1.3 15.35
    endloop
  endfacet
  facet normal 0 0 1
    outer loop
      vertex -10 0 15.35
      vertex -3.8 1.3 15.35
      vertex -5 8.66025 15.35
    endloop
  endfacet
  facet normal -0 0 1
    outer loop
      vertex -5 8.66025 15.35
      vertex -3.8 1.3 15.35
      vertex 5 8.66025 15.35
    endloop
  endfacet
  facet normal 0 0 1
    outer loop
      vertex 10 0 15.35
      vertex 3.8 -1.3 15.35
      vertex 5 -8.66025 15.35
    endloop
  endfacet
  facet normal -0 0 1
    outer loop
      vertex -3.8 -1.3 15.35
      vertex 5 -8.66025 15.35
      vertex 3.8 -1.3 15.35
    endloop
  endfacet
  facet normal 0 0 1
    outer loop
      vertex -3.8 -1.3 15.35
      vertex -5 -8.66025 15.35
      vertex 5 -8.66025 15.35
    endloop
  endfacet
  facet normal 0 0 1
    outer loop
      vertex -3.8 1.3 15.35
      vertex -10 0 15.35
      vertex -3.8 -1.3 15.35
    endloop
  endfacet
  facet normal 0 0 1
    outer loop
      vertex -3.8 -1.3 15.35
      vertex -10 0 15.35
      vertex -5 -8.66025 15.35
    endloop
  endfacet
  facet normal -1 0 0
    outer loop
      vertex 2.2 0 0
      vertex 2.2 0.809999 4.5
      vertex 2.2 0.809999 0
    endloop
  endfacet
  facet normal -1 -0 0
    outer loop
      vertex 2.2 0.809999 4.5
      vertex 2.2 0 0
      vertex 2.2 0 4.5
    endloop
  endfacet
  facet normal 0 1 0
    outer loop
      vertex 2.2 0 4.5
      vertex 2.19999 0 3
      vertex -2.2 0 4.5
    endloop
  endfacet
  facet normal 0 1 -0
    outer loop
      vertex 2.2 0 0
      vertex 2.19999 0 3
      vertex 2.2 0 4.5
    endloop
  endfacet
  facet normal 0 1 0
    outer loop
      vertex 2.19999 0 3
      vertex 2.2 0 0
      vertex 2.19999 0 0
    endloop
  endfacet
  facet normal 0 1 0
    outer loop
      vertex -2.2 0 3
      vertex -2.2 0 4.5
      vertex 2.19999 0 3
    endloop
  endfacet
  facet normal 0 -0 0
    outer loop
      vertex -2.2 0 3
      vertex -2.2 0 0
      vertex -2.2 0 4.5
    endloop
  endfacet
  facet normal 0 1 -0
    outer loop
      vertex 3.8 -1.3 9
      vertex -3.8 -1.3 15.35
      vertex 3.8 -1.3 15.35
    endloop
  endfacet
  facet normal 0 1 0
    outer loop
      vertex -3.8 -1.3 15.35
      vertex 3.8 -1.3 9
      vertex -3.8 -1.3 9
    endloop
  endfacet
  facet normal -0.942215 0 0.33501
    outer loop
      vertex 2.2 0 4.5
      vertex 3.8 1.3 9
      vertex 2.2 0.809999 4.5
    endloop
  endfacet
  facet normal -0.942215 0 0.33501
    outer loop
      vertex 3.8 1.3 9
      vertex 2.2 0 4.5
      vertex 3.8 -1.3 9
    endloop
  endfacet
  facet normal 0.942215 0 0.33501
    outer loop
      vertex -3.8 1.3 9
      vertex -2.2 0 4.5
      vertex -2.2 0.809999 4.5
    endloop
  endfacet
  facet normal 0.942215 0 0.33501
    outer loop
      vertex -2.2 0 4.5
      vertex -3.8 1.3 9
      vertex -3.8 -1.3 9
    endloop
  endfacet
  facet normal -1 0 0
    outer loop
      vertex 3.8 -1.3 9
      vertex 3.8 1.3 15.35
      vertex 3.8 1.3 9
    endloop
  endfacet
  facet normal -1 -0 0
    outer loop
      vertex 3.8 1.3 15.35
      vertex 3.8 -1.3 9
      vertex 3.8 -1.3 15.35
    endloop
  endfacet
  facet normal 0 -1 0
    outer loop
      vertex -3.8 1.3 9
      vertex 3.8 1.3 15.35
      vertex -3.8 1.3 15.35
    endloop
  endfacet
  facet normal 0 -1 -0
    outer loop
      vertex 3.8 1.3 15.35
      vertex -3.8 1.3 9
      vertex 3.8 1.3 9
    endloop
  endfacet
  facet normal 1 -0 0
    outer loop
      vertex -3.8 -1.3 15.35
      vertex -3.8 1.3 9
      vertex -3.8 1.3 15.35
    endloop
  endfacet
  facet normal 1 0 0
    outer loop
      vertex -3.8 1.3 9
      vertex -3.8 -1.3 15.35
      vertex -3.8 -1.3 9
    endloop
  endfacet
  facet normal 0 0.960714 0.27754
    outer loop
      vertex 2.2 0 4.5
      vertex -3.8 -1.3 9
      vertex 3.8 -1.3 9
    endloop
  endfacet
  facet normal 0 0.960714 0.27754
    outer loop
      vertex -3.8 -1.3 9
      vertex 2.2 0 4.5
      vertex -2.2 0 4.5
    endloop
  endfacet
  facet normal 0 -0.994124 0.108249
    outer loop
      vertex -2.2 0.809999 4.5
      vertex 3.8 1.3 9
      vertex -3.8 1.3 9
    endloop
  endfacet
  facet normal 0 -0.994124 0.108249
    outer loop
      vertex 3.8 1.3 9
      vertex -2.2 0.809999 4.5
      vertex 2.2 0.809999 4.5
    endloop
  endfacet
endsolid OpenSCAD_Model
